<?xml version="1.0" encoding="UTF-8"?>
<svg id="safety" xmlns="http://www.w3.org/2000/svg" xmlns:xlink="http://www.w3.org/1999/xlink" viewBox="0 0 600 600">
  <defs>
    <style>
      .cls-1 {
        fill: #fff;
      }

      .cls-2 {
        fill: url(#_Градієнт_без_назви_14);
      }
    </style>
    <linearGradient id="_Градієнт_без_назви_14" data-name="Градієнт без назви 14" x1="281.57" y1="269.67" x2="283.75" y2="490.91" gradientUnits="userSpaceOnUse">
      <stop offset="0" stop-color="#314bd9"/>
      <stop offset="1" stop-color="#1b31ae"/>
    </linearGradient>
  </defs>
  <path d="M360.88,89.97c-7.71-2.78-15.99-4.21-24.18-3.45-6.51.6-12.74,2.44-18.62,5.28-4.32,2.09-8.31,4.73-12.21,7.52-2.12,1.52-4.24,3.04-6.15,4.83-2.7,2.54-5.07,5.42-7.26,8.41-4.94,6.77-8.8,14.37-11.55,22.28-2.9,8.33-4.1,17.05-4.2,25.85-.09,8.13.65,16.31-.46,24.4s-4.24,16.16-7.59,23.77c-2.67,6.05-5.79,12.13-7.08,18.66s-.2,13.51,2.89,19.74c.92,1.86,1.99,3.65,3.14,5.38,1.77,2.67,6.1.17,4.32-2.52-3.73-5.62-6.39-11.74-5.91-18.46.4-5.61,3.04-11.49,5.42-16.82,3.28-7.36,6.64-14.8,8.54-22.66s1.97-16.08,1.81-24.22-.08-16.59,1.87-24.71c1.9-7.9,5.13-15.45,9.31-22.4,3.43-5.7,7.78-11.65,13.08-15.52,3.41-2.49,6.87-4.96,10.53-7.07,4.96-2.86,9.97-4.9,15.65-6.06,6.98-1.42,14.22-1.05,21.11.68,2.11.53,4.17,1.18,6.22,1.92,1.27.46,2.74-.52,3.08-1.75.38-1.39-.47-2.61-1.75-3.08h0Z"/>
  <path d="M359.58,121.67c-4.35,10.56-12.32,19.44-22.84,24.07-4.92,2.16-10.03,3.85-14.95,6.01-3.99,1.76-7.95,3.9-10.98,7.1-3.97,4.18-5.68,9.57-6.24,15.21-.13,1.35,1.25,2.5,2.5,2.5,1.46,0,2.37-1.15,2.5-2.5.22-2.23.81-4.87,1.56-6.7.8-1.93,1.9-3.57,3.13-4.88,2.81-3,6.63-4.93,10.61-6.65,4.72-2.03,9.91-3.74,14.7-5.91s9.6-5.51,13.47-9.39c4.99-5,8.68-11.02,11.36-17.53.51-1.25-.56-2.75-1.75-3.08-1.43-.39-2.56.49-3.08,1.75h0Z"/>
  <path d="M308.05,172.07c-4.41-2.06-9.42-2.69-13.7.07-3.47,2.24-6.13,6.04-7.02,10.07-1.19,5.4.17,11.01,2.87,15.75,2.54,4.47,6.29,8.74,11.36,10.26,5.8,1.74,11.14-1.36,14.95-5.56,2.16-2.38-1.37-5.92-3.54-3.54s-5.28,5.06-8.9,4.55c-3.83-.54-6.69-3.75-8.69-6.81-2.29-3.5-3.74-7.51-3.48-11.73.12-1.86.72-3.66,1.71-5.23.67-1.05,1.24-1.77,2.3-2.72s2.41-1.67,3.92-1.89c1.85-.27,3.93.29,5.68,1.1,1.22.57,2.69.34,3.42-.9.63-1.08.33-2.85-.9-3.42h0Z"/>
  <path d="M416.28,175.79c3.19-1.83,6.96-2.3,10.37-.76s5.44,4.61,5.83,8.25c.44,4.04-.91,8.03-2.99,11.44-1.93,3.16-4.73,6.65-8.59,7.35-3.64.67-7.22-2-8.82-5.07-1.49-2.85-5.81-.33-4.32,2.52,2.16,4.14,6.64,7.33,11.37,7.62,5.64.35,10.13-3.58,13.26-7.83s5.25-9.49,5.15-14.8c-.1-5.32-2.5-10.27-7.09-13.11-5.15-3.19-11.54-2.91-16.71.05-2.79,1.6-.28,5.92,2.52,4.32h0Z"/>
  <path d="M300.98,184.94c.08-.06.17-.1.25-.15.1-.05.21-.1.31-.15-.86.44-.37.15-.1.07.18-.06.36-.1.54-.14.1-.02.2-.03.31-.06-.78.17-.45.06-.22.04.25-.02.49-.02.74-.01.12,0,.28.04.4.03-.58.04-.4-.06-.1,0s.61.14.9.24c.15.05.34.09.48.18l-.27-.11c.11.05.22.11.33.16.32.16.62.35.92.54.39.25-.4-.38-.04-.02.11.11.23.21.35.32.46.44.87.93,1.27,1.42.05.06.42.52.16.2s.1.13.15.2c.19.26.39.52.58.77.41.54.81.96,1.49,1.15.6.16,1.4.09,1.93-.25,1.03-.66,1.74-2.31.9-3.42-.97-1.27-1.89-2.62-3.06-3.71-1.3-1.22-3.01-2.14-4.77-2.48-1.92-.37-4.29-.28-5.97.88-1.07.74-1.67,2.23-.9,3.42.69,1.07,2.27,1.69,3.42.9h0Z"/>
  <path d="M353.84,180.15c-.6,8.97-1.25,17.99-4.09,26.58-.26.77,0,1.91.64,2.43,5.05,4.11,12.07,4.13,17.19.15,1.07-.83.87-2.66,0-3.54-1.05-1.05-2.47-.83-3.54,0-2.8,2.18-7.38,2.07-10.12-.15l.64,2.43c2.98-8.99,3.65-18.52,4.27-27.91.09-1.35-1.21-2.5-2.5-2.5-1.43,0-2.41,1.15-2.5,2.5h0Z"/>
  <path d="M394.85,169.71c-7.52-5.83-18.02-6.81-26.37-2.11-2.8,1.58-.29,5.9,2.52,4.32,6.21-3.5,14.62-3.09,20.31,1.33,1.07.83,2.5,1.04,3.54,0,.86-.86,1.07-2.7,0-3.54h0Z"/>
  <path d="M350.83,165.42c-4.16-2.05-8.8-3.05-13.44-2.71-4.37.32-9.69,1.48-12.49,5.12-.82,1.07-.16,2.8.9,3.42,1.29.75,2.59.18,3.42-.9.78-1.01,2.84-1.52,3.98-1.86,1.62-.48,3.26-.76,4.95-.84,3.5-.15,7,.52,10.15,2.07,1.21.6,2.7.33,3.42-.9.64-1.1.32-2.82-.9-3.42h0Z"/>
  <path d="M353.04,228.94c5.15,2.49,11.18,3.09,16.62,1.19,4.93-1.72,9.1-5.15,11.74-9.66,1.63-2.78-2.69-5.3-4.32-2.52-4.33,7.39-13.74,10.45-21.53,6.68-1.21-.59-2.7-.33-3.42.9-.64,1.1-.32,2.83.9,3.42h0Z"/>
  <path d="M424.72,178.79c-3.09-.42-6.31.09-8.88,1.96-2.38,1.74-4.15,4.2-4.82,7.09-.3,1.27.39,2.77,1.75,3.08,1.28.29,2.76-.38,3.08-1.75.06-.27.13-.53.22-.8.03-.1.07-.21.11-.31.01-.04.22-.54.05-.16s.04-.08.08-.15c.06-.12.12-.25.19-.37.12-.22.24-.43.37-.64.07-.12.15-.23.23-.34.25-.36-.03-.12-.05.04.02-.16.42-.5.54-.62.17-.18.35-.35.53-.52.1-.09.21-.18.31-.27.34-.3-.3.21-.05.04.46-.31.92-.61,1.43-.85.09-.04.25-.08.32-.15-.3.12-.36.15-.19.08.05-.02.11-.04.17-.06.28-.1.56-.19.85-.26.26-.07.52-.12.78-.17.57-.12-.39.03-.05,0,.15-.01.29-.03.44-.04.29-.02.59-.02.89-.01.12,0,.24,0,.35.02.13,0,.75.08.04-.01.7.1,1.29.12,1.93-.25.52-.3,1.01-.9,1.15-1.49.27-1.18-.36-2.89-1.75-3.08h0Z"/>
  <path d="M312.51,202.6c2.4,11.32,6.64,22.88,14.32,31.73,6.43,7.42,15.14,13.24,24.56,16.05,11.83,3.52,24.33,1.42,34.67-5.23,5.56-3.58,10.16-8.52,14.05-13.81,7.08-9.62,11.23-21.07,12.27-32.95.12-1.35-1.23-2.5-2.5-2.5-1.45,0-2.38,1.15-2.5,2.5-.87,9.93-4.26,19.49-9.76,27.8-2.03,3.08-4.1,5.67-6.72,8.4-1,1.04-2.04,2.05-3.12,3.01-.45.4-.91.79-1.37,1.17-.22.18-.44.35-.65.53-.12.1-.38.28.17-.13-.12.09-.25.19-.37.28-8.47,6.19-18.98,9.12-29.36,6.99-9.12-1.87-17.44-6.92-23.9-13.54-3.56-3.65-6.11-7.57-8.49-12.31-3.07-6.1-5.06-12.66-6.47-19.32-.67-3.15-5.49-1.81-4.82,1.33h0Z"/>
  <ellipse cx="379.87" cy="187.72" rx="4.87" ry="8.19"/>
  <ellipse cx="338.78" cy="185.35" rx="4.87" ry="8.19"/>
  <path d="M359.86,123.39c3.2,9.47,9.32,17.64,16.03,24.92s14.13,14.25,22.1,20.18c4.66,3.46,9.63,6.37,15,8.58,1.25.51,2.75-.56,3.08-1.75.39-1.43-.49-2.56-1.75-3.08-8.76-3.6-16.28-9.64-23.21-15.97s-13.72-12.94-19.16-20.58c-2.99-4.21-5.61-8.72-7.27-13.63-1.02-3.03-5.86-1.73-4.82,1.33h0Z"/>
  <path d="M334.65,272.71c-.17.43-.35.86-.53,1.28l.25-.6c-.75,1.78-1.57,3.54-2.45,5.26-.31.6-.43,1.26-.25,1.93.16.58.61,1.21,1.15,1.49,1.14.6,2.79.35,3.42-.9,1.19-2.33,2.26-4.72,3.23-7.14.23-.56.04-1.43-.25-1.93s-.9-1.01-1.49-1.15c-.64-.15-1.36-.11-1.93.25l-.51.39c-.31.31-.52.68-.64,1.1h0Z"/>
  <path d="M340.29,246.54c-.22,5.6-1.04,11.06-2.45,16.5-.34,1.31.43,2.71,1.75,3.08s2.74-.43,3.08-1.75c1.51-5.83,2.39-11.82,2.63-17.83.05-1.35-1.19-2.5-2.5-2.5-1.4,0-2.45,1.15-2.5,2.5h0Z"/>
  <path d="M380.53,243.8c-1.18,6.6-1.06,13.42-.34,20.07.2,1.89,1.27,3.19,2.12,4.83s.87,3.23-.48,5.13c-.78,1.1-.19,2.78.9,3.42,1.25.73,2.63.21,3.42-.9,1.65-2.31,2.28-5.18,1.43-7.93-.31-1.02-.79-2-1.33-2.93-.22-.38-.45-.74-.68-1.11-.1-.17-.55-1-.42-.7.16.37-.02-.03-.02-.12,0,.06-.05-.79-.06-.9-.07-.8-.13-1.6-.19-2.41-.12-1.76-.2-3.51-.22-5.27-.04-3.3.1-6.61.69-9.86.24-1.33-.36-2.69-1.75-3.08-1.21-.33-2.84.41-3.08,1.75h0Z"/>
  <path d="M361.84,95.08c9.82-3.32,20.71-5.1,30.69-3.54,8.53,1.33,15.89,4.57,22.8,9.75.48.36,1.27.99,2.01,1.62.82.69,1.62,1.41,2.4,2.14,1.49,1.4,2.92,2.88,4.27,4.41,2.63,2.98,4.63,5.7,6.85,9.21,2.05,3.24,3.87,6.62,5.48,10.1,1.41,3.04,2.6,6.05,3.78,9.61,1,3.03,1.85,6.12,2.5,9.24.29,1.4.54,2.8.75,4.21.02.16.04.32.07.48-.11-.76-.03-.2,0-.04.04.3.07.61.11.91.22,1.98.36,3.97.45,5.96.36,7.86-.15,15.76-1.25,23.54-1.11,7.85-3.04,15.52-4.34,23.32-.66,3.97-1.12,8.01-.83,12.04.26,3.63,1.09,7.16,2.37,10.56,2.17,5.77,5.24,11.17,8.1,16.61,1.16,2.19,2.32,4.38,3.43,6.6.69,1.39,1.36,2.79,2,4.2.34.75.67,1.51,1,2.27.28.65-.2-.47.08.18.08.2.16.39.24.59.19.46.38.93.56,1.39,1.29,3.3,2.4,6.69,3.14,10.16.18.83.32,1.67.46,2.51.02.1.11.8.03.17.03.21.05.41.08.62.05.48.1.96.13,1.44.11,1.59.08,3.17-.07,4.76-.07.66.09-.55-.01.1-.03.19-.06.38-.09.56-.07.37-.14.74-.23,1.11-.19.79-.44,1.55-.73,2.3-.23.59.23-.49-.04.08-.08.17-.16.33-.24.5-.17.33-.34.65-.53.97s-.4.62-.61.93c-.06.09-.46.59-.06.09-.16.2-.32.39-.49.58-.48.54-1,1.02-1.54,1.49-.07.06-.6.47-.13.11-.16.12-.33.25-.5.36-.41.28-.83.55-1.26.8-.39.22-.78.43-1.18.62-.21.1-.42.2-.63.29-.7.31.45-.17-.28.11-1.03.4-2.08.73-3.15,1-2.36.59-4.43.84-6.84.97-3.2.18-3.22,5.18,0,5,8.25-.46,17.66-2.92,21.59-10.99,3.21-6.6,2.23-14.36.31-21.19s-4.84-13.09-8.03-19.25c-1.37-2.64-2.76-5.28-4.15-7.91-3.36-6.35-7.06-12.95-7.69-20.24-.69-8.02,1.59-15.9,3.12-23.7s2.79-16.29,3.21-24.53c.5-9.69-.09-19.39-2.65-28.76-1.98-7.24-4.84-14.29-8.46-20.87-3.98-7.24-8.99-14.04-15.1-19.64-6.5-5.97-14.24-10.55-22.76-12.96-10.07-2.86-20.75-2.55-30.9-.24-2.9.66-5.75,1.49-8.56,2.44-3.03,1.03-1.73,5.86,1.33,4.82h0Z"/>
  <path d="M378.74,263.88c-5.07-1.2-10.57,1.86-12.11,6.87-.91,2.96-.18,6.23,2.03,8.42,2.09,2.07,5.09,2.98,7.99,2.65,3.47-.39,6.65-2.09,9.07-4.59.91-.94,1.01-2.61,0-3.54s-2.56-1-3.54,0c-.35.36-.71.7-1.09,1.03,0,0-.32.26-.14.12s-.15.11-.15.11c-.24.17-.48.33-.73.49-.42.26-.86.5-1.32.72-.12.06-.23.11-.35.16.11-.05.33-.12-.14.04-.29.1-.58.2-.88.28-.25.07-.51.13-.77.18-.13.02-.26.05-.39.07.06,0,.31-.03.01-.01-.56.04-1.13.06-1.69-.02.36.05-.26-.07-.36-.1-.21-.05-.42-.12-.63-.19-.44-.15.2.13-.21-.1-.22-.12-.45-.25-.66-.39-.09-.06-.18-.12-.27-.19.04.03.26.25.08.05-.15-.16-.32-.29-.47-.45-.07-.08-.14-.16-.22-.24.03.03.21.31.06.08-.13-.22-.27-.43-.39-.64-.06-.11-.14-.42-.01,0-.03-.1-.07-.21-.1-.31-.04-.13-.15-.65-.13-.54s0-.44,0-.58c0-.13,0-.26.02-.39-.02.27,0,0,.02-.12.05-.22.1-.43.16-.64s.21-.55.03-.15c.18-.39.39-.76.63-1.12.05-.08.11-.16.17-.24-.03.04-.28.29-.08.12.15-.13.27-.3.41-.44s.29-.28.44-.41c.07-.07.15-.13.23-.19-.16.14-.25.18-.02.03.2-.13.39-.26.59-.37.09-.05.17-.1.26-.14.06-.03.56-.29.24-.13-.27.13.02,0,.07-.03.13-.04.25-.09.38-.13.22-.07.45-.13.67-.18s.72-.07.22-.06c.23,0,.46-.04.69-.04s.46.03.69.03c-.04,0-.43-.11-.17-.02.15.05.33.07.49.1,1.27.3,2.77-.4,3.08-1.75s-.38-2.75-1.75-3.08h0Z"/>
  <path d="M385.78,265.08c3.64-1.22,7.42-2.46,11.3-2.48,3.76-.02,6.58,1.5,9.2,4.1,1.34,1.32,2.63,2.69,4.05,3.93s2.81,2.32,4.08,3.62c2.57,2.63,3.05,5.75,3.07,9.3.03,4.33-.18,8.7,1.96,12.63l.39-3.03c.82-.66.66.04.16-.47-.2-.2-.53-.33-.76-.51-.69-.55-1.32-1.16-2.02-1.7-1.52-1.2-3.11-2.3-4.8-3.23-3.17-1.75-6.53-2.86-10.03-3.71-1.23-.3-2.65-.57-3.66-1.39s-1.22-2.24-1.9-3.28c-1.08-1.64-2.76-2.52-4.73-2.35-2.29.2-4.58.67-6.85,1-1.34.2-2.07,1.89-1.75,3.08.39,1.43,1.73,1.95,3.08,1.75,1.12-.17,2.24-.33,3.36-.5.74-.11,2.02-.58,2.76-.36-.09-.03-.12-.04-.19-.1.26.22.43.77.58,1.08.32.67.6,1.35,1.03,1.96,2.15,3.04,5.78,3.56,9.12,4.46,3.53.95,6.82,2.54,9.79,4.65s6.38,6.32,10.34,3.16c.87-.7.88-2.13.39-3.03-1.82-3.35-1.2-7.45-1.29-11.11-.11-4.24-1.12-8.06-4-11.28-1.3-1.45-2.84-2.66-4.31-3.93s-2.91-2.77-4.35-4.18c-3.14-3.1-6.66-5.1-11.11-5.5-4.84-.43-9.72,1.07-14.26,2.59-3.04,1.02-1.73,5.85,1.33,4.82h0Z"/>
  <path d="M367.97,268.1c-1.8,2.14-4.31,2.51-6.93,2.43-3.37-.1-6.63-.96-9.96-1.46-2.04-.31-4.01-.53-6.03.08-1.8.55-3.41,1.53-4.81,2.78-1.88,1.66-3.49,3.68-5.07,5.62-1.26,1.55-2.49,3.12-3.69,4.71-.81,1.08-.17,2.79.9,3.42,1.28.75,2.61.19,3.42-.9.26-.35.52-.69.79-1.03-.28.37,0,.01.11-.15.17-.22.35-.44.52-.66.37-.47.74-.94,1.11-1.4,1.58-1.96,3.19-3.96,5.02-5.7.97-.93,2.09-1.64,3.4-1.98,1.69-.44,3.63.11,5.31.43,3.25.61,6.56,1.29,9.89,1.24,3.56-.05,7.18-1.1,9.54-3.91.87-1.03,1.01-2.52,0-3.54-.89-.89-2.66-1.04-3.54,0h0Z"/>
  <path d="M330.74,274.66c1.67-.66,3.73-1.65,5.4-.52s2.41,3.02,3.32,4.63c2.05,3.61,5.08,7.37,8.91,9.18,4.08,1.93,8.62,1.08,12.67-.54s7.41-3.91,10.27-7.01c2.18-2.36-1.35-5.91-3.54-3.54-2.53,2.74-5.65,4.91-9.19,6.14-1.76.61-3.67,1.16-5.55,1.1-1.76-.05-3.31-.97-4.61-2.1-1.54-1.34-2.89-2.89-3.97-4.62s-2.01-3.72-3.35-5.39c-1.21-1.49-2.86-2.71-4.74-3.17-2.38-.58-4.74.14-6.95,1.01-1.26.49-2.13,1.67-1.75,3.08.33,1.2,1.81,2.24,3.08,1.75h0Z"/>
  <path d="M383.35,268.58c3.22,0,3.22-5,0-5s-3.22,5,0,5h0Z"/>
  <g>
    <path d="M154.56,287.81c2.02,7.75,2.69,15.74,2.6,23.73-.03,3.22,4.97,3.22,5,0,.09-8.42-.66-16.9-2.78-25.06-.81-3.11-5.63-1.79-4.82,1.33h0Z"/>
    <path d="M400.88,294.26c-.25,2.13-.46,4.25-.7,6.38-.07.59.33,1.36.73,1.77.43.43,1.15.76,1.77.73s1.32-.24,1.77-.73l.39-.51c.23-.39.34-.81.34-1.26.25-2.13.46-4.25.7-6.38.07-.59-.33-1.36-.73-1.77-.43-.43-1.15-.76-1.77-.73s-1.32.24-1.77.73l-.39.51c-.23.39-.34.81-.34,1.26h0Z"/>
    <g>
      <path class="cls-2" d="M278.63,224.55c-13.91,24.01-38.26,38.33-65.77,34.77-10.77,18.16-32.31,29.34-53.36,27.71l1.09,22.78,47.5,18.31c3.85,1.48,5.1,6.31,2.45,9.47l-4.78,5.72c5.06,1.29,8.29,7.37,6.54,12.29s-7.51,4.07-12.84,5.38c1.81,4.08,6.31,4.95,5.72,9.54s-7.53,7.85-12.05,6.85c4.48,5.61,12.52,10.75,6.15,14.04-6.38,3.29-29.88-4-29.88-4,0,0-2.66,65.83,53.66,106.41,35.28,25.42,83.93,20.13,125.14-9.82,35.17-25.56,48.85-70.08,42.69-102.51-5.33,3.45-13.05,4.01-15.17-1.98-2.12-5.99,10.02-13.6,16.34-14.27-3.13,1.11-10.39.41-13.52,1.52-8.39-2.57-2.34-17.16,6.42-16.79-5.43,1.28-19.53-.15-20.5-5.65-.97-5.5,4.4-10.58,9.95-11.24-6.24,3.58-17.06-7.14-12.31-12.54,4.75-5.4,20.73-11.84,27.92-12,7.19-.16,11.34-6.54,14.06-13.2-23.49-1.07-46.04-14.74-57.83-35.09-35.06,12.6-60.08-17.74-67.61-35.71Z"/>
      <path class="cls-1" d="M341.62,298.37c-33.96,34.88-59.3,78.08-73.16,124.75-14.42-12.62-24.63-21.33-37.99-30.19-2.94-1.95-9.4,2.35-11.61,5.1s-1.93,7.19.61,9.64c8.21,7.93,17.94,15.99,23.27,26.09,5.33,10.1,16.7,24.67,16.7,24.67l28.59-2.03s16.69-79.51,62.23-144.2c2.22-3.15,1.61-7.92-1.15-10.61s-7.47-3.07-7.48-3.22Z"/>
      <path d="M275.99,222.96c-5.36,19.89-26.13,30.37-44.98,33.74-5.95,1.06-12.09,1.15-17.9-.67-1.69-.53-3.01.87-3.16,2.41-.73,7.13-7.44,12.07-13.21,15.26-7.75,4.3-16.25,7.28-24.92,9.04-4.94,1-9.95,1.55-14.99,1.7-3.21.09-3.22,5.09,0,5,9.83-.29,19.64-2.08,28.9-5.38,8.24-2.94,17.07-6.82,23.22-13.25,3.3-3.45,5.5-7.59,5.99-12.38l-3.16,2.41c11.19,3.51,23.59.82,34.32-3.08s19.88-9.43,26.7-18.01c3.66-4.6,6.47-9.78,8.01-15.47.84-3.11-3.98-4.44-4.82-1.33h0Z"/>
      <g>
        <path d="M190.88,342.91c3.41.84,6.98,1.33,10.5,1.37,3.83.05,8.07-.44,11.13-2.94s3.93-6.93,2.62-10.43c-1.23-3.3-4.16-5.48-7.29-6.87s-6.16-2.14-9.33-2.93c-4.4-1.1-8.59-3.05-12.78-4.75-5.57-2.27-11.21-4.51-17.11-5.75-3.04-.64-6.15-1.05-9.26-1.06-2.42-.01-4.76.18-6.76,1.68-3.64,2.73-5.42,8.07-4.15,12.46,1.58,5.48,8.28,7.41,13.2,8.55,3.13.72,4.47-4.1,1.33-4.82-2.08-.48-4.21-1.04-6.15-1.96-.84-.4-1.7-.84-2.41-1.44-.15-.13-.89-.97-.64-.61-.12-.17-.51-.99-.36-.61-.46-1.21-.45-2.42-.17-3.65.36-1.55.93-2.68,1.99-3.67.03-.03.36-.3.08-.09.13-.1.28-.19.42-.28s.29-.17.44-.25c.7-.34-.21.05.23-.08.21-.06.41-.12.63-.16-.1.02-.43.04.13-.01.72-.07,1.46-.06,2.19-.06,2.6.01,5.17.31,7.72.84,5.25,1.09,10.29,2.97,15.26,4.96,4.38,1.76,8.75,3.88,13.29,5.18,2.45.7,4.95,1.19,7.38,1.98.65.21,1.29.44,1.92.69.1.04.58.24.18.07.15.06.29.13.44.19.36.17.71.33,1.06.52.61.32,1.19.68,1.76,1.07.07.05.38.29.03,0,.11.09.23.18.34.28.29.26.58.53.85.82.12.13.23.26.34.4-.06-.08-.26-.39-.02,0,.15.24.28.47.42.71.32.57-.09-.3.04.07.06.17.12.33.17.5.04.14.07.28.1.41.13.52,0-.4.04.21.08,1.4-.16,2.45-.72,3.41-.35.58.19-.19-.07.11-.12.14-.25.27-.38.4.01-.01-.53.45-.25.24.21-.16-.33.21-.39.25-.85.52-.93.54-1.94.82-1.77.5-3.01.59-4.95.59-3.57.02-6.3-.35-9.73-1.2-3.12-.77-4.46,4.05-1.33,4.82h0Z"/>
        <path d="M185.58,359.67c8.52,4.25,21.06,5.62,27.5-2.95,2.63-3.5,2.88-7.89-.4-11.07-3.54-3.44-8.91-4.93-13.57-6.11-2.76-.7-5.54-1.25-8.34-1.79-3.19-.61-6.28-1.58-9.29-2.77s-5.74-2.51-8.58-3.81c-2.67-1.22-5.39-2.64-8.27-3.3-5.01-1.16-10.5-.7-15.4.75-4.23,1.25-8.35,3.3-10.08,7.59s-.96,9.87.17,14.42c.73,2.93,1.7,5.82,2.92,8.58.54,1.24,2.35,1.52,3.42.9,1.27-.75,1.44-2.18.9-3.42-.24-.55.23.57.04.09-.16-.41-.33-.82-.49-1.24-.52-1.36-.98-2.75-1.4-4.15-1.08-3.68-1.8-7.1-1.49-10.91.02-.24.04-.44.15-.96.08-.39.18-.77.3-1.15.16-.51.14-.45.26-.71.11-.23.24-.44.36-.66.07-.12.51-.71.12-.22.96-1.19,2.08-1.79,3.72-2.5,3.6-1.56,8.2-2.25,12.31-2.01,4.92.3,9.49,3.01,13.94,5.02,5.33,2.42,10.64,4.39,16.39,5.5,4.71.91,9.55,1.89,13.99,3.75,1.72.72,3.47,1.66,4.56,2.79.16.17.33.34.47.53-.07-.09-.22-.34,0,.04.09.16.18.31.27.48.18.35-.13-.53.03.09.03.14.08.27.11.41.16.67-.03-.51,0,.18,0,.14,0,.3-.02.44.04-.52-.02.05-.06.18-.05.17-.1.35-.16.52-.06.16-.05.14.04-.06-.07.15-.14.3-.21.44-.21.39-.43.77-.69,1.13-.42.6-1.25,1.47-2,2.03-.99.75-2.12,1.32-3.31,1.66-.51.15-1.04.25-1.57.34-.19.03-1.05.14-.23.04-4.83.57-9.54-.28-13.9-2.46-2.87-1.43-5.41,2.88-2.52,4.32h0Z"/>
        <path d="M163.55,391.87c2.47-1.07,4.88-2.29,7.25-3.58h-2.52c3.19,1.38,6.42,2.68,9.68,3.9,4.4,1.65,9.25,3.69,14.01,3.88,4.43.18,11.04-2.36,12.41-7.01.88-3.01-.85-5.71-3.15-7.51-1.69-1.32-3.6-2.22-5.46-3.26-1.69-.95-3.35-1.96-4.98-3-5.37-3.45-10.54-7.59-16.92-8.96-6.9-1.48-14.14-.19-20.66,2.28-4.2,1.59-8.58,3.54-12.16,6.31-4.63,3.58-6.28,9.4-4.66,14.96,1.71,5.84,6.61,10.18,11.94,12.73,3.35,1.61,6.88,2.92,10.55,3.59,2.63.48,5.27.63,7.93.77.53.03,1.07.06,1.6.1.22.02.44.04.66.07.1.01.49.06,0,0,.14.02.29.04.43.07,1.33.22,2.69-.35,3.08-1.75.33-1.19-.41-2.86-1.75-3.08-2.23-.37-4.47-.41-6.73-.55-2.75-.18-5.23-.6-7.98-1.46-3.33-1.04-6.69-2.48-9.52-4.57-1.14-.84-2.2-1.86-3.08-2.97-.45-.57-.85-1.19-1.21-1.82-.18-.32-.36-.64-.53-.97-.11-.21-.2-.49-.32-.68-.14-.21.15.36.15.37-.02-.55-.46-1.31-.59-1.86-.04-.19-.09-.38-.12-.57-.03-.18-.12-.76-.06-.27-.07-.54-.1-1.08-.1-1.63,0-1.16.09-1.83.59-3.09.37-.92,1.24-2.12,2.13-2.93,1.23-1.13,2.79-1.96,4.24-2.76,2.11-1.16,4.31-2.22,6.51-3.06,5.85-2.26,12.45-3.75,18.69-2.31,5.85,1.35,10.67,5.38,15.69,8.59,1.59,1.01,3.2,1.98,4.84,2.9s3.46,1.67,4.9,2.9c.46.39.87.86,1.05,1.13.08.13.17.28.23.42-.02-.05-.18-.31-.05-.08.29.5-.13-.08.06.24s-.02-.31-.02.2c0,.08-.06.2-.09.28,0-.03.19-.39.05-.14-.12.21-.23.42-.38.61.28-.37-.14.12-.25.23-.19.19-.39.37-.6.53.3-.24-.18.11-.27.17-.5.31-1.01.59-1.54.85-.33.16-.01.03-.47.19-.24.09-.48.17-.72.25-.55.18-1.11.32-1.68.43-.15.03-.85.12-.37.07-.22.02-.43.04-.65.05-.43.02-.85-.01-1.28-.04s.41.08-.19-.03c-.21-.04-.41-.07-.62-.11-.53-.1-1.05-.22-1.57-.35-4.8-1.19-9.47-3.02-14.06-4.86-.88-.35-1.76-.71-2.63-1.08-.19-.08-1.07-.45-.7-.29.39.16-.29-.12-.44-.19-.97-.41-1.85-.65-2.88-.15-.81.39-1.59.85-2.38,1.26-1.6.82-3.21,1.61-4.86,2.32-1.24.54-1.52,2.35-.9,3.42.75,1.28,2.18,1.44,3.42.9h0Z"/>
        <path d="M189.32,379.55c3.46.9,7.41.14,10.66-1.19,3.87-1.59,7.15-4.33,7.17-8.85.03-5.87-5.92-8.23-10.54-9.93-.64-.24-1.29-.47-1.93-.72-.07-.03-.93-.37-.55-.21.28.12-.18-.08-.24-.11-.77-.36-1.53-.75-2.27-1.15-1.6-.87-3.15-1.82-4.71-2.75-3.55-2.13-7.12-4.26-10.96-5.84-1.66-.68-3.35-1.21-5.13-1.44-2.49-.33-5,.14-7.43.7-5.03,1.16-10.22,2.36-14.92,4.55-3.03,1.41-5.34,3.5-7.63,5.86-5.38,5.57-4.99,13.38-3.26,20.44.77,3.12,5.59,1.8,4.82-1.33-.48-1.96-.87-3.93-.99-5.94-.05-.8-.06-1.6-.02-2.4.02-.38.05-.76.09-1.14,0-.05.07-.5.01-.13.03-.17.05-.34.09-.5.11-.57.25-1.14.43-1.7.09-.27.18-.53.29-.8s-.05.11-.06.14c.08-.17.16-.35.25-.52.19-.37.4-.73.62-1.07.12-.18.25-.35.37-.53.22-.32-.33.36.08-.09,1.23-1.36,2.5-2.87,3.96-3.97,3.27-2.47,7.43-3.54,11.32-4.58,2.41-.65,4.83-1.29,7.28-1.78,1.06-.21,2.13-.36,3.22-.34.86.01.83.02,1.69.21,3.19.72,6.14,2.33,8.96,3.93,3.06,1.73,6.02,3.65,9.11,5.34,3.36,1.84,7.17,2.67,10.5,4.54,1.67.94,2.97,2.21,2.41,4.26-.23.84-.31.91-.84,1.43s-.85.72-1.61,1.14c-1.47.82-3.09,1.31-4.8,1.64-.73.14-1.41.21-2.28.22-.36,0-.71-.01-1.07-.04-.52-.04-.19-.02-.08,0-.23-.04-.45-.09-.67-.15-3.12-.81-4.45,4.01-1.33,4.82h0Z"/>
      </g>
      <g>
        <path d="M382.84,328.68c-1.21.37-2.43.69-3.66.96-1.59.35-3.04.6-4.4.74-1.67.17-3.37.24-5.04.1-.83-.07-.99-.09-1.92-.33-.32-.08-.63-.18-.95-.28-.72-.23.22.12-.18-.06-.18-.08-.35-.17-.52-.26-.14-.08-.95-.65-.62-.37-.23-.19-.44-.4-.63-.62-.32-.36-.07-.1-.02-.02-.08-.12-.17-.25-.24-.38.02.03-.31-.64-.18-.33.09.2-.16-.48-.19-.58-.11-.37-.21-.76-.27-1.14.07.46-.02-.42-.02-.53,0-.14.07-.99,0-.45.06-.39.17-.76.29-1.13s-.17.35-.02.01c.07-.16.15-.31.24-.47.14-.25.29-.48.45-.71.27-.39.06-.07,0,0,.12-.14.23-.27.36-.4.25-.27.52-.52.79-.76.11-.1.23-.19.34-.29.34-.27-.47.32.13-.09.25-.18.51-.35.77-.52.64-.4,1.3-.77,1.98-1.1,1.31-.65,2.07-.93,3.63-1.47,1.22-.43,2.46-.81,3.69-1.19,3.5-1.1,6.8-2.73,10.11-4.31,9.09-4.35,18.59-9.38,28.92-9.51.21,0,.42,0,.64,0,.13,0,.76.07.19,0,.38.05.75.15,1.12.25.89.26,1.09.36,1.99.87,1.71.96,3.05,2.14,4.39,3.62,3.03,3.37,4.9,7.76,4.97,12.31.04,3.21,5.04,3.22,5,0-.12-8.88-6.02-18.74-14.78-21.55-2.1-.67-4.33-.54-6.49-.32-2.83.28-5.62.81-8.35,1.59-5.53,1.57-10.8,3.99-15.98,6.46-4.07,1.94-8.2,4.24-12.25,5.54-2.96.95-5.93,1.84-8.76,3.16s-5.89,3.34-7.35,6.29c-1.66,3.36-1.17,7.77,1.31,10.62,2.76,3.17,7.54,3.68,11.49,3.51s7.71-.88,11.38-2.02c3.06-.95,1.76-5.78-1.33-4.82h0Z"/>
        <path d="M390.67,344.07c-4.29,2.18-9.1,3.89-13.81,4.23-1.78.13-3.65.16-5.39-.26-.89-.22-1.69-.53-2.46-1.03-.25-.16-.47-.35-.8-.68-.36-.37-.29-.27-.57-.71-.22-.34-.41-.7-.57-1.07.17.39-.13-.45-.17-.59-.17-.61-.2-1.05-.02-1.59.02-.07.15-.45,0-.07.08-.19.18-.37.28-.54.23-.41.26-.44.43-.65.56-.67,1.25-1.28,1.91-1.75,4.01-2.85,8.96-4.36,13.65-5.64,2.79-.76,5.56-1.46,8.26-2.53s5.09-2.23,7.56-3.51,5.09-2.73,7.65-4.04c2.05-1.05,3.59-1.84,5.82-2.35,3.79-.86,8.06-.76,11.84.11,1.87.43,3.22.84,4.69,1.78.15.09.76.58.39.26.25.22.5.45.71.71-.4-.48.23.44.31.61.21.42.29.58.45,1.02,1.52,4.18,1.35,8.83.86,13.26-.23,2.03-.65,4.61-1.26,6.93-.82,3.11,4,4.44,4.82,1.33.65-2.47,1.04-5.02,1.36-7.55.56-4.52.69-9.26-.46-13.7-.52-2.02-1.32-4.19-2.8-5.72s-3.33-2.35-5.21-3.02c-4.34-1.55-9.3-1.9-13.85-1.35-2.39.29-4.67.8-6.88,1.76-2.84,1.25-5.56,2.8-8.29,4.25s-5.29,2.81-8.04,3.99-5.83,2.02-8.84,2.83c-7.18,1.94-24.03,6.77-19.81,17.48,2.1,5.33,7.43,7.16,12.79,7.1,6.31-.06,12.41-2.16,17.98-4.98,2.87-1.46.34-5.77-2.52-4.32h0Z"/>
        <path d="M416.34,376.04c-2-.73-3.97-1.56-5.91-2.45-1.22-.56-2.22-1.03-3.57-.39-1.69.8-3.36,1.66-5.06,2.46-2.95,1.38-5.79,2.66-8.7,3.79-1.43.56-2.88,1.09-4.35,1.53-.59.18-1.19.34-1.8.48-.25.05-.5.09-.74.15-.44.1.08-.01.16-.02-.19.01-.37.03-.55.04-.58.03-1.18,0-1.75-.08.49.06-.53-.11-.65-.14-.41-.09-.81-.19-1.21-.32-.79-.24-1.13-.37-1.62-.62-.29-.15-.57-.3-.85-.47-.13-.08-.26-.17-.4-.26-.59-.4.3.3-.21-.16-.21-.19-.42-.39-.61-.61.34.39-.1-.17-.18-.32-.07-.11-.09-.23-.06-.36.08-.38.34-.86.76-1.31.75-.8,1.61-1.44,2.54-2.02,4.11-2.59,8.01-5.36,11.89-8.29,2.81-2.13,5.81-4.37,9.08-5.55,7.73-2.8,16.31-.94,23.71,1.98,1.82.72,3.98,1.7,5.95,2.82,2.86,1.62,4.59,3.97,5.01,7.05-.07-.49.02.49.03.61.01.32.01.65,0,.97,0,.18-.11.97,0,.31-.04.29-.1.57-.17.85-.05.19-.14.38-.17.58-.06.33.29-.49,0-.03s.31-.26.32-.29c.32-.5-.14.08-.35.22-.3.21-.6.42-.9.63-3.9,2.74-7.6,5.8-10.96,9.19-5.42,5.48-9.87,11.78-13.72,18.43-2.87,4.94-5.33,10.24-8.82,14.79.31-.4-.14.17-.25.31-.17.21-.35.42-.53.62-.39.45-.8.88-1.23,1.3s-.85.79-1.31,1.15c.43-.35-.11.08-.26.18-.26.18-.52.36-.79.53-.43.27-.88.51-1.34.74-.12.06-.23.11-.35.16-.57.27.34-.13-.03.01-.28.1-.55.21-.84.3-.58.19-1.18.34-1.78.46-.28.06-.56.1-.84.14.56-.08-.51.04-.66.06-1.39.1-2.79.05-4.18-.09s-2.5,1.24-2.5,2.5c0,1.46,1.15,2.37,2.5,2.5,5.64.55,11.07-.76,15.35-4.59s6.74-8.83,9.38-13.57c3.46-6.24,7.05-12.42,11.65-17.91,2.88-3.44,6.08-6.61,9.54-9.47,1.92-1.59,3.96-2.97,5.97-4.44,1.02-.74,1.57-1.74,1.91-2.94.85-3,.36-6.32-.92-9.11-1.43-3.14-4.1-5.39-7.1-6.97-6.46-3.41-13.67-5.81-20.98-6.28-4.65-.3-9.31.38-13.58,2.26-3.57,1.57-6.66,3.99-9.75,6.34-1.89,1.44-3.8,2.86-5.76,4.21-2.3,1.57-4.81,2.88-6.98,4.64-2.83,2.29-4.76,6.05-2.46,9.42,1.83,2.67,5.26,4.13,8.36,4.67s5.63.05,8.45-.88c5.9-1.95,11.6-4.66,17.16-7.41.4-.2.79-.39,1.19-.59h-2.52c2.63,1.24,5.31,2.39,8.05,3.39,1.27.46,2.74-.52,3.08-1.75.38-1.39-.47-2.61-1.75-3.08h0Z"/>
        <path d="M386.57,365.4c-2.91,1.29-6.37.88-9.05-.75-2.08-1.27-4.08-4-1.92-6.24,1.29-1.34,3.14-2.13,4.8-2.88,1.93-.87,3.89-1.68,5.76-2.68,3.63-1.93,7-4.29,10.43-6.54,3.14-2.05,6.78-4.88,10.69-4.9,2.16-.01,4.34.5,6.45.89s4.09.79,6.12,1.26c3.34.78,6.85,1.75,9.59,3.92,1.08.85,2.12,1.93,3.03,2.97.06.07.12.15.18.22.21.24-.3-.42-.11-.15.12.17.25.34.37.52.24.36.46.74.66,1.13.12.23.23.46.33.7-.21-.49.06.19.12.37.19.55.34,1.12.46,1.69.29,1.32.37,2.57.35,4.15-.02,2.08-.27,4.14-.65,6.19-.24,1.33.36,2.7,1.75,3.08,1.21.33,2.83-.41,3.08-1.75,1.09-5.98,1.73-13.23-2.05-18.47-3.55-4.93-8.99-7.7-14.8-9.15-2.27-.56-4.56-1.02-6.85-1.45-2.55-.48-5.18-1.08-7.78-1.11-4.95-.06-9.28,2.86-13.27,5.46s-7.91,5.38-12.21,7.47c-3.95,1.92-9.08,3.28-11.4,7.38-2.57,4.55.2,9.64,4.2,12.16,4.32,2.72,9.64,2.88,14.24.84,1.23-.55,1.52-2.35.9-3.42-.74-1.27-2.18-1.45-3.42-.9h0Z"/>
      </g>
      <path d="M277.14,224.19c2.4,10.74,8.23,20.69,16.36,28.1,8.79,8.01,20.04,12.74,31.87,13.72,6.77.56,13.68-.2,20.17-2.21l-2.82-1.15c9.36,16.61,26.24,28.66,44.86,32.58,5.24,1.1,10.6,1.59,15.95,1.38,3.21-.13,3.22-5.13,0-5-17.76.71-35.37-6.72-47.63-19.53-3.45-3.61-6.41-7.61-8.87-11.96-.53-.94-1.78-1.47-2.82-1.15-10.68,3.31-22.24,2.84-32.67-1.2-9.56-3.69-17.73-10.7-23.17-19.34-3.02-4.8-5.18-10.04-6.42-15.58-.7-3.14-5.52-1.81-4.82,1.33h0Z"/>
      <path d="M388.42,383.56c-.72,23.84-5.79,47.77-17.61,68.68-11.48,20.3-28.86,36.88-49.89,47.05-7.82,3.78-16.21,6.81-24.76,8.41-1.73.32-3.26.54-4.58.7-2.34.27-4.69.46-7.05.55-5.97.24-11.98-.06-17.88-1-25.66-4.1-49.22-19.21-65.53-39.16-15.92-19.48-25.45-44.07-28.24-68.97-.35-3.14-.6-6.3-.75-9.46s-5.15-3.22-5,0c1.24,26.2,9.33,52.31,24.36,73.92,15.2,21.84,37.58,38.76,63.27,46.16,11.91,3.43,24.63,4.42,36.93,2.96,7.73-.92,15.2-2.98,22.47-5.77,23.29-8.94,43.19-25.25,56.84-46.1,13.25-20.23,19.91-43.97,21.86-67.93.27-3.34.45-6.68.55-10.02s-4.9-3.22-5,0h0Z"/>
      <path d="M214,403.43c11.37,12.39,22.46,25.17,31.94,39.07,2.39,3.51,4.67,7.1,6.7,10.83s5.75,6.72,10.16,7.39c2.3.35,4.6.06,6.92,0,2.7-.06,5.41-.03,8.12.03,4.52.09,8.73-1.17,12.1-4.28,3.07-2.83,4.24-6.47,5.29-10.36,1.92-7.07,3.91-14.12,5.99-21.15,4.8-16.23,9.86-32.52,16.48-48.11,3.21-7.55,7.12-14.75,11.08-21.93,4.38-7.94,8.91-15.8,13.45-23.65,3.14-5.43,6.4-10.83,9.27-16.42.97-1.89,1.65-3.6,1.82-5.74.22-2.86-.82-5.73-2.89-7.73-3.47-3.36-8.78-4.31-13.44-4.53-1.22-.06-2.77-.23-3.7.73-.45.46-.81,1.04-1.2,1.55-4.83,6.29-9.36,12.82-13.76,19.42-8.41,12.64-16.22,25.7-23.37,39.09-9.17,17.17-17.28,34.95-23.87,53.27-1.7,4.73-3.29,9.5-4.78,14.31l4.57-.6c-5.23-8.12-12.62-14.6-20.36-20.25-3.96-2.89-8.08-5.55-12.28-8.06-1.96-1.17-3.94-2.3-5.94-3.41-2.3-1.27-4.7-2.67-7.43-2.51-5.64.33-9.97,5.08-11.6,10.21-.98,3.07,3.85,4.39,4.82,1.33s3.9-6.84,7.49-6.54c1.91.16,3.85,1.63,5.49,2.55,1.84,1.04,3.67,2.1,5.48,3.19,7.47,4.51,14.72,9.51,21.07,15.52,3.35,3.17,6.43,6.61,8.94,10.49,1.17,1.82,3.92,1.5,4.57-.6,7.8-25.31,18.76-49.58,31.59-72.72,8.69-15.67,18.23-30.91,28.7-45.45,1.38-1.92,2.78-3.82,4.21-5.71.23-.3.46-.6.69-.9.09-.12.18-.24.27-.36.26-.34-.48.62-.16.21.14-.18.27-.35.41-.53l-1.77.73c.47-.02.95,0,1.43,0s.99.04,1.48.08c.26.02.53.04.79.07.18.02,1.27.17.54.06,1.46.22,2.91.52,4.31,1,.17.06,1.08.42.52.18.3.13.6.27.89.42.35.18.69.38,1.01.59.13.09.27.18.4.27.15.11.1.07-.12-.1.1.08.2.16.29.25.23.22.45.44.67.67.08.09.44.59.09.09.11.16.22.31.32.48.08.13.48,1.02.26.45.16.42.27.84.36,1.28.08.41-.03-.61,0,.09.01.23.03.46.03.69,0,.16-.07,1.14-.03.82-.07.56-.23,1.07-.39,1.6s.29-.59.02-.05c-.11.22-.2.44-.31.66-.25.51-.5,1.01-.77,1.51-.75,1.44-1.54,2.86-2.34,4.28-4.94,8.81-10.1,17.5-15.08,26.29-5.37,9.46-10.87,18.96-15.24,28.93-8.56,19.52-14.71,40.14-20.53,60.61-1.18,4.15-2.33,8.31-3.46,12.48-.57,2.11-1.07,4.15-2.42,5.93s-3.38,3.21-5.57,3.86c-2.73.82-5.71.41-8.52.39-1.61,0-3.21,0-4.82.05-1.49.04-3.02.25-4.51.15-2.38-.15-4.61-1.34-6.15-3.14-.92-1.07-1.52-2.44-2.22-3.67-3.14-5.5-6.75-10.72-10.51-15.81-6.56-8.87-13.64-17.36-20.95-25.62-2.31-2.61-4.65-5.2-7.01-7.77-2.18-2.38-5.71,1.17-3.54,3.54h0Z"/>
    </g>
  </g>
  <path d="M419.47,281.8c9.41,4.54,16.82,12.8,20.54,22.55,1.85,4.85,2.87,9.98,2.81,15.18-.06,6.1-1.81,11.95-3.57,17.74-2.14,7.04-4.32,14.22-3.96,21.67.16,3.2,5.16,3.22,5,0-.65-13.36,7.14-25.4,7.52-38.68.32-11.28-3.9-22.4-11.02-31.07-4.01-4.88-9.1-8.95-14.79-11.69-1.22-.59-2.7-.33-3.42.9-.64,1.09-.32,2.83.9,3.42h0Z"/>
  <path d="M298.64,200.57c.18,4,.51,7.99,1,11.96.15,1.25.83,2.28,2.17,2.46,1.14.15,2.51-.56,2.74-1.79.77-4.15,1.41-8.32,1.94-12.5h-5c.06,3.88,1,7.66,1.97,11.39.31,1.21,1.54,1.95,2.74,1.79s2.2-1.2,2.17-2.46c-.05-1.88,0-3.76.12-5.64.06-.9.15-1.79.25-2.69.03-.24.06-.49.09-.73-.06.5.04-.28.05-.31.07-.49.15-.97.23-1.45.22-1.28-.34-2.76-1.75-3.08-1.21-.28-2.84.37-3.08,1.75-.69,4.02-1.03,8.08-.92,12.15l4.91-.66c-.45-1.73-.9-3.45-1.25-5.2-.08-.4-.15-.79-.22-1.19-.04-.24-.08-.48-.11-.72-.08-.55.02.31-.04-.3-.09-.89-.16-1.77-.17-2.66-.02-1.31-1.14-2.56-2.5-2.5-1.5.07-2.32,1.1-2.5,2.5-.03.25-.06.5-.1.74,0,.02-.11.81-.04.33-.07.49-.14.99-.21,1.48-.14.95-.28,1.89-.43,2.84-.3,1.93-.64,3.86-.99,5.78l4.91.66c-.49-3.97-.83-7.96-1-11.96-.06-1.3-1.11-2.56-2.5-2.5-1.3.06-2.56,1.1-2.5,2.5h0Z"/>
  <path d="M413.79,199.27c-.17,5.15-.04,10.3-.2,15.44-.04,1.24.98,2.3,2.17,2.46,1.11.15,2.55-.56,2.74-1.79.78-5.04,1.69-10.07,2.72-15.07l-4.91-.66c-.03,2.7-.06,5.4-.09,8.1s-.31,5.6.24,8.29c.25,1.22,1.59,1.95,2.74,1.79,1.26-.17,2.1-1.2,2.17-2.46.27-5.24.86-10.15,1.88-15.25.26-1.28-.36-2.76-1.75-3.08-1.24-.28-2.8.37-3.08,1.75-1.09,5.47-1.78,11.01-2.06,16.58l4.91-.66c-.07-.35-.11-.89-.12-1.44,0-.62,0-1.25.01-1.87l.04-3.97c.03-2.59.06-5.19.08-7.78.01-1.25-.96-2.29-2.17-2.46s-2.49.57-2.74,1.79c-1.03,5-1.93,10.02-2.72,15.07l4.91.66c.16-5.15.03-10.3.2-15.44.04-1.31-1.18-2.56-2.5-2.5-1.39.06-2.45,1.1-2.5,2.5h0Z"/>
</svg>