<?xml version="1.0" encoding="UTF-8"?>
<svg id="equipment" xmlns="http://www.w3.org/2000/svg" xmlns:xlink="http://www.w3.org/1999/xlink" viewBox="0 0 600 600">
  <defs>
    <style>
      .cls-1 {
        fill: url(#linear-gradient);
      }

      .cls-1, .cls-2 {
        stroke: #211e1e;
        stroke-miterlimit: 10;
      }

      .cls-3 {
        fill: #211e1e;
      }

      .cls-2 {
        fill: url(#_Градієнт_без_назви_17);
      }
    </style>
    <linearGradient id="linear-gradient" x1="302.54" y1="313.39" x2="302.54" y2="175.32" gradientUnits="userSpaceOnUse">
      <stop offset="0" stop-color="#182da8"/>
      <stop offset="1" stop-color="#324cda"/>
    </linearGradient>
    <linearGradient id="_Градієнт_без_назви_17" data-name="Градієнт без назви 17" x1="299.17" y1="308.68" x2="299.17" y2="192.23" gradientUnits="userSpaceOnUse">
      <stop offset="0" stop-color="#bcd9ef"/>
      <stop offset="1" stop-color="#324bd9"/>
    </linearGradient>
  </defs>
  <g>
    <path class="cls-1" d="M393.08,211.55c-5.07-15.46-9.23-32.86-78.06-33.82-68.83-.97-89.07-4.03-101.3,19.85-12.23,23.88,43.74,112.14,83.77,116.25s95.59-102.28,95.59-102.28Z"/>
    <path class="cls-2" d="M212.05,198.01c-21.31,9.06-40.78,49.52-39.51,63.1,1.28,13.58,22.7,36.46,42.48,42.53s41.41,12.31,64.51-15.02c23.11-27.34,18.56-18.81,18.56-18.81,0,0,21.68,11.69,33.18,28.17,5.29,7.58,20.11,16.03,46.65,7.78,26.54-8.26,47.99-28.98,47.93-44.5-.06-15.52-23.43-58.32-39.96-62.5-16.53-4.18-102.16-4.55-129.72-5.05,0,0-36.36,1.01-44.12,4.31Z"/>
    <g>
      <g>
        <path class="cls-3" d="M275.4,207.53c-10.56-.11-21.13-.19-31.69.29-5.44.25-10.88.64-16.3,1.21-2.82.3-5.63.64-8.44,1.04-1.52.22-2.9.85-4.17,1.71-2.92,1.96-5.42,4.55-7.73,7.18-1.96,2.24-3.85,4.57-5.48,7.07-2.93,4.49-5.61,9.14-8.03,13.92-1.26,2.5-2.45,5.03-3.57,7.59-1.06,2.43-2.13,4.9-2.69,7.51-2.13,9.98,4.61,19.75,11.82,26.02,7.6,6.61,17.05,10.59,26.85,12.6,5.24,1.07,10.59,1.66,15.94,1.93,3.93.2,7.54-.22,10.97-2.2,5.53-3.18,10.19-8.02,14.56-12.59,4.63-4.85,8.99-9.94,13.49-14.9,1.45-1.6,2.89-3.24,4.52-4.65,1.04-.9,2.67-1.95,4.18-2.77,2.09-1.13,4.36-1.98,6.72-2.33,2.14-.32,4.26-.12,6.32.51,3.08.94,4.4-3.88,1.33-4.82-8.01-2.45-17.07,1.01-22.93,6.66-3.92,3.78-7.39,8.06-11.03,12.12-4.5,5.02-9.09,10.04-14.21,14.45-.54.46-1.08.92-1.64,1.36-.05.04-.8.62-.5.39-.32.25-.65.49-.98.73-1.02.73-2.07,1.41-3.18,1.98-.23.12-.47.23-.7.34-.38.19.39-.12-.26.1-.71.25-1.43.46-2.17.57-2.51.37-5.2.04-7.72-.15-9.83-.75-19.84-2.78-28.52-7.64-7.44-4.16-14.56-10.68-17.44-18.92-.79-2.27-1.15-4.63-.7-7.02s1.38-4.72,2.37-6.97c2.12-4.84,4.5-9.56,7.13-14.14,3.74-6.51,7.24-11.77,12.6-16.91,1.18-1.13,2.19-2.04,3.41-2.83.27-.17.54-.34.82-.49.13-.07.89-.4.38-.21.77-.29,1.57-.37,2.39-.47,5.37-.71,10.76-1.23,16.16-1.6,10.1-.68,20.23-.78,30.35-.72,2.59.02,5.18.04,7.76.07,3.22.03,3.22-4.97,0-5h0Z"/>
        <path class="cls-3" d="M271.11,212.54c11.92.12,23.85.3,35.77.34,8.95.03,17.86-.34,26.8-.47,12.04-.18,24.08.36,36.05,1.71,1.61.18,3.23.38,4.84.59.97.13,1.95.19,2.87.54-.52-.2.45.25.58.32.36.2.7.43,1.04.66.69.48,1.14.86,1.89,1.52,1.61,1.43,3.1,3,4.52,4.61.58.66,1.15,1.33,1.71,2.01.28.35.57.69.85,1.05.13.16.26.33.39.49.11.14.1.13-.03-.03.09.12.18.24.27.36,3.01,4.03,5.53,8.49,7.92,12.92,1.51,2.8,2.93,5.66,4.25,8.55s2.58,5.63,3.23,8.65c1.17,5.48-1.69,10.8-4.84,15.09s-7.03,7.52-11.35,10.19c-10.16,6.26-22.3,8.44-34.07,8.96-1.42.06-2.89.11-4.3-.12-.48-.08-.95-.2-1.41-.35-.17-.05-1.19-.47-.58-.2-1.29-.58-2.51-1.32-3.67-2.13-2.61-1.81-5.4-4.36-7.94-6.85-5.68-5.56-10.85-11.61-16.16-17.52-1.76-1.96-3.5-4-5.49-5.73-3.74-3.25-8.59-5.73-13.51-6.45-2.89-.42-5.78-.29-8.58.57-3.07.94-1.76,5.77,1.33,4.82,5.44-1.67,10.96.25,15.52,3.33,1.92,1.3,3.82,3.29,5.61,5.24,5.35,5.85,10.46,11.92,16.03,17.57,2.87,2.91,5.84,5.71,9.09,8.19,2.49,1.91,5.28,3.74,8.42,4.33s6.69.29,10,.02,6.54-.67,9.78-1.24c6.2-1.09,12.29-2.9,17.96-5.66,9.84-4.78,19.2-13.19,22.56-23.9,2.07-6.61-.33-12.69-3.04-18.7s-5.7-11.58-9.1-17.06c-2.14-3.44-4.47-6.66-7.14-9.71s-5.57-6.28-9.15-8.08c-2.3-1.15-4.91-1.21-7.42-1.52-3.31-.41-6.63-.76-9.95-1.05-6.17-.54-12.36-.86-18.55-.98-9.87-.19-19.71.38-29.57.45-11.14.07-22.29-.11-33.43-.23-3.33-.04-6.67-.07-10-.1s-3.22,4.97,0,5h0Z"/>
      </g>
      <path class="cls-3" d="M307.12,196.62c12.87-.13,25.75-.24,38.62.21,6.51.22,13.01.58,19.5,1.12,3.44.29,6.88.62,10.31,1.01,1.63.18,3.27.38,4.9.59,1.33.17,2.73.24,4.02.59.17.05,1.05.37.54.16.34.14.67.32,1,.49.81.44,1.58.97,2.33,1.52,1.32.97,3.04,2.56,4.4,3.91,1.56,1.55,3.05,3.16,4.48,4.82.64.74,1.28,1.49,1.9,2.25.29.35.58.71.86,1.07.11.14.22.27.33.41.05.07.64.81.38.48,2.87,3.71,5.3,7.77,7.68,11.82,3.33,5.67,6.39,11.5,9.16,17.47,2.62,5.65,5.75,11.82,5.35,18.21-.36,5.73-3.53,11.26-6.81,15.83-6.37,8.87-15.73,15.45-25.71,19.66-11.9,5.03-24.99,7-37.82,7.56-1.6.07-3.21.1-4.8-.03-1.09-.09-2.09-.39-3.13-.62-.43-.1.54.31.15.06-.07-.05-.16-.07-.24-.12-.24-.13-.48-.25-.71-.38-.53-.3-1.04-.64-1.55-.98-.6-.41-1.19-.84-1.78-1.28-.15-.11-.3-.23-.45-.35.35.27-.07-.05-.15-.12-.36-.28-.71-.57-1.07-.86-1.56-1.27-3.08-2.58-4.59-3.91-7.01-6.2-13.7-12.78-20.3-19.42-1.49-1.49-2.97-2.99-4.45-4.5s-2.89-3.21-4.67-4.37c-2.32-1.51-5.22-1.95-7.91-1.42s-4.5,2.04-6.28,3.87c-6.25,6.42-12.58,12.77-19.09,18.93-3.21,3.04-6.46,6.04-9.83,8.91-2.53,2.16-4.34,3.78-7.23,5.45-.22.13-.44.25-.66.36-.21.11-.91.33-.11.08-.91.28-1.82.51-2.77.62-3.28.38-6.67.04-9.95-.21-6.42-.47-12.8-1.33-19.07-2.79-11.41-2.65-22.49-7.37-31.41-15.1-4.11-3.56-7.74-7.67-10.56-12.33-3.06-5.06-5.51-10.91-4.41-16.93,1.17-6.39,4.39-12.5,7.24-18.28s6.11-11.65,9.58-17.24c4.39-7.07,9.14-13.29,15.54-18.94,1.41-1.25,2.55-2.18,4.26-3.11.33-.18.66-.35,1-.49-.51.22.39-.12.54-.16.88-.24,1.75-.29,2.65-.41,4.96-.63,9.94-1.09,14.92-1.47,21.86-1.66,43.84-1.83,65.76-1.74,4.47.02,8.94.05,13.41.1,3.22.03,3.22-4.97,0-5-21.73-.22-43.48-.24-65.19.79-5.66.27-11.32.61-16.96,1.09-5.07.42-10.2.83-15.21,1.67-3.69.62-6.97,3.56-9.61,6.01-3.2,2.96-6.1,6.24-8.81,9.64-7.02,8.78-12.49,18.95-17.32,29.06-2.9,6.07-6.14,12.43-6.92,19.19s1.73,12.88,5.01,18.41c5.94,10.01,15.23,17.85,25.55,23.07,11.85,5.99,25,8.7,38.15,9.82,3.43.29,6.92.62,10.36.46,2.28-.11,4.59-.38,6.66-1.39,2.78-1.37,5.24-3.49,7.61-5.45,7.14-5.91,13.78-12.43,20.36-18.95,3.12-3.1,6.22-6.23,9.29-9.38,1.42-1.45,2.7-3.01,4.83-3.35,2.34-.38,4.09.82,5.64,2.41,6.4,6.57,12.88,13.06,19.55,19.36,3.27,3.09,6.58,6.14,10.01,9.05,2.53,2.14,5.14,4.4,8.05,6.02,4.51,2.51,10.32,1.76,15.26,1.41,6.7-.48,13.4-1.33,19.96-2.8,12.23-2.73,23.94-7.77,33.61-15.82,4.4-3.66,8.29-7.97,11.41-12.77,3.4-5.24,6.25-11.4,6.2-17.77-.06-6.84-3.26-13.3-6.07-19.37s-6.04-12.22-9.51-18.08c-4.67-7.88-9.91-15.27-16.5-21.69-2.78-2.71-6.03-5.73-9.84-6.87-1.3-.39-2.72-.45-4.05-.63-1.8-.24-3.6-.46-5.41-.67-3.44-.4-6.89-.75-10.34-1.04-13.23-1.14-26.51-1.5-39.79-1.52-6.43-.01-12.85.05-19.28.11-3.22.03-3.22,5.03,0,5h0Z"/>
      <g>
        <path class="cls-3" d="M297.82,179.37c8.78-.2,17.56-.33,26.34-.32,6.12,0,12.23.14,18.34.59,8.95.66,18.01,1.93,26.41,5.24,7.04,2.78,14.85,7.69,17.67,15.1.48,1.26,1.69,2.13,3.08,1.75,1.21-.33,2.23-1.81,1.75-3.08-2.81-7.39-9.11-12.72-16-16.27-8.25-4.25-17.44-6.12-26.59-7.16-13.18-1.49-26.48-1.25-39.71-1.06-3.76.05-7.51.12-11.27.21-3.21.07-3.22,5.08,0,5h0Z"/>
        <path class="cls-3" d="M301.29,174.37c-9.17-.21-18.35-.35-27.53-.32-6.66.02-13.31.23-19.95.82-9.36.84-18.74,2.41-27.38,6.22-7.95,3.5-15.53,9.22-18.7,17.56-.48,1.26.53,2.74,1.75,3.08,1.41.39,2.59-.48,3.08-1.75,2.51-6.61,8.99-11.08,15.13-13.99,7.9-3.74,16.8-5.25,25.44-6.06,12.45-1.17,24.98-.95,37.47-.76,3.57.05,7.15.11,10.72.2,3.22.07,3.22-4.93,0-5h0Z"/>
      </g>
      <path class="cls-3" d="M264.48,302.71c7.3,5.28,15.92,9.59,24.63,11.9,6.37,1.69,12.71,1.83,19.1.15,5.85-1.54,11.45-4.13,16.72-7.06,3.03-1.69,6.04-3.5,8.84-5.54,1.09-.79,1.63-2.17.9-3.42-.63-1.08-2.32-1.7-3.42-.9-6.54,4.76-14.02,8.82-21.72,11.32-5.68,1.84-11.26,2.39-17.14,1.1s-11.35-3.65-16.58-6.47c-3.02-1.63-6.02-3.38-8.8-5.4-1.09-.79-2.79-.19-3.42.9-.74,1.26-.2,2.63.9,3.42h0Z"/>
      <g>
        <path class="cls-3" d="M265.14,355.54c-2.14,5.74-3.11,12.17-1.49,18.18,1.42,5.24,4.86,9.55,9.2,12.71,10.06,7.31,22.97,6.69,34.64,4.82,1.52-.24,3.03-.51,4.54-.78s3.03-.49,4.13-1.65c1.18-1.25,1.19-2.99,1.24-4.6s.31-3.47-.02-5.12c-.73-3.68-4.44-3.65-7.42-3.67-3.3-.02-6.59-.03-9.89-.05s-6.64.09-9.94-.15c-2.52-.19-5.12-.76-7.18-2.3-4.94-3.69-1.42-10.32-1.53-15.29-.08-3.33-1.42-6.66-4.32-8.5s-6.43-1.14-8.95,1.06c-4.86,4.23-6.25,11.78-4.83,17.81.74,3.13,5.56,1.81,4.82-1.33-.98-4.16-.09-9.29,3-12.43,1.24-1.26,2.72-1.69,4.02-.27,1.53,1.66,1.39,4.14,1.1,6.22-.36,2.65-1.09,5.28-.93,7.98s1.07,5.09,2.86,7.11c3.43,3.89,8.82,4.88,13.76,5.03,5.84.18,11.69.08,17.53.1.29,0,3.43.19,3.47.11-.14.3-.38-.99-.43.25-.03.82-.05,1.63-.08,2.45-.02.65-.02,1.31-.06,1.96s-.13.42.1.31c.62-.3-.14-.18-.07-.17-.51-.08-1.41.27-1.94.36-.8.14-1.59.28-2.39.42-9.95,1.7-20.9,2.85-30.06-2.31-3.96-2.23-7.51-5.59-9.08-9.94-2.01-5.58-.99-11.56,1.02-16.98.47-1.27-.53-2.74-1.75-3.08-1.4-.38-2.6.48-3.08,1.75h0Z"/>
        <path class="cls-3" d="M331.14,356.87c1.78,4.77,2.85,10.06,1.6,15.09-1.02,4.12-3.61,7.64-7.02,10.14-8.2,6.02-18.72,6.06-28.39,4.68-1.44-.21-2.88-.44-4.31-.68-.64-.11-1.27-.22-1.91-.33s-1.61-.5-2.24-.4c-.04,0-.26-.12-.38-.07.69-.32.07.88.25.09.14-.6-.05-1.55-.07-2.16-.02-.65-.04-1.31-.06-1.96,0,.09.01-.87-.02-.9.02-.17,0-.2-.08-.09-.1.11-.21.19-.34.25,0,.03,7.24-.13,7.91-.13,2.97-.01,5.93-.03,8.9-.04,5.15-.02,10.74.1,15.24-2.81,2.03-1.31,3.72-3.09,4.67-5.33,1.12-2.64,1-5.44.6-8.21s-1.42-5.82-.45-8.5c.58-1.62,2.11-3.08,3.84-2.14,1.98,1.07,3.18,3.67,3.82,5.72.76,2.47.87,5.06.28,7.58-.74,3.13,4.08,4.47,4.82,1.33,1.33-5.68.15-11.86-3.54-16.44-1.79-2.22-4.46-3.84-7.39-3.45s-5.08,2.45-6.21,4.96c-1.37,3.06-.99,6.39-.44,9.6.44,2.54,1.19,5.55-.08,7.97-2.59,4.91-9.45,4.69-14.16,4.71-3.3.02-6.59.03-9.89.05-1.65,0-3.3.02-4.94.02-1.47,0-3.03-.12-4.45.34-3.75,1.22-3.08,5.34-2.98,8.44.05,1.63.06,3.32,1.24,4.6,1.03,1.11,2.48,1.36,3.89,1.61,12.05,2.15,25.03,4.02,36.29-2.04,5.18-2.79,9.5-7.13,11.66-12.65,2.53-6.47,1.55-13.83-.82-20.19-.47-1.26-1.69-2.13-3.08-1.75-1.22.33-2.22,1.8-1.75,3.08h0Z"/>
      </g>
      <g>
        <path class="cls-3" d="M423.93,245.27c0-3.08.01-6.16.02-9.24.02-7.4.04-14.79.05-22.19l.06-26.86c.02-7.78.04-15.56.06-23.34,0-3.75.17-7.54.03-11.29,0-.05,0-.11,0-.16,0-3.22-4.99-3.22-5,0s-.01,6.16-.02,9.24c-.02,7.4-.04,14.79-.05,22.19l-.06,26.86c-.02,7.78-.04,15.56-.06,23.34,0,3.75-.17,7.54-.03,11.29,0,.05,0,.11,0,.16,0,3.22,4.99,3.22,5,0h0Z"/>
        <path class="cls-3" d="M348.22,468.06c13.86.16,28.28.89,41.35-4.49,10.83-4.46,19.98-12.21,25.93-22.33,5.29-9,7.94-19.53,8.03-29.94.02-2.89.01-5.78.02-8.68.02-6.25.03-12.5.05-18.75.02-8.33.04-16.67.06-25,.02-9.06.04-18.12.07-27.18l.06-25.25c.02-6.52.03-13.03.05-19.55,0-3.23.07-6.47.02-9.7,0-.15,0-.29,0-.44,0-3.22-4.99-3.22-5,0,0,2.19-.01,4.37-.02,6.56l-.04,17.22c-.02,7.95-.04,15.91-.06,23.86-.02,8.9-.04,17.8-.06,26.71s-.04,17.21-.06,25.82c-.02,6.95-.03,13.89-.05,20.84l-.03,12.13c-.02,6.75-.95,13.41-3.17,19.8-3.6,10.38-10.6,19.45-19.89,25.29-4.82,3.03-10.05,5.16-15.6,6.47-6.35,1.5-12.87,1.63-19.37,1.68-4.1.03-8.2,0-12.29-.05-3.22-.04-3.22,4.96,0,5h0Z"/>
        <path class="cls-3" d="M392.85,198.45c.04-14.07.07-28.13.18-42.2.01-1.58.02-3.16.05-4.74.05-3.22-4.95-3.22-5,0-.18,10.52-.14,21.05-.17,31.57-.02,5.12-.03,10.24-.05,15.37,0,3.22,4.99,3.22,5,0h0Z"/>
        <path class="cls-3" d="M346.52,432.83c3.17.05,6.34.05,9.51.04,5.05-.03,10.21.07,15.22-.63,5.61-.79,11.03-3.48,14.86-7.69,3.96-4.36,6.02-9.95,6.13-15.82s.08-12.11.11-18.16c.05-12.1.08-24.19.12-36.29.04-15.66.08-31.32.12-46.98,0-2.07.01-4.15.02-6.22,0-3.22-4.99-3.22-5,0-.07,28.16-.13,56.32-.23,84.48-.03,7.11-.04,14.22-.1,21.33-.03,3.69-.4,7.24-2.19,10.56-2.38,4.4-6.48,7.64-11.25,9.12-5.09,1.57-10.81,1.25-16.08,1.3-3.74.04-7.48.03-11.21-.02-3.22-.05-3.22,4.95,0,5h0Z"/>
        <path class="cls-3" d="M359.9,427.83c-7.23-.01-14.5.49-21.7-.36-5.31-.63-10.55-2.28-14.3-5.99-2.96-2.93-4.55-6.59-5.51-10.76-1.06-4.6-1.22-9.36-1.25-14.2-.03-6.03.22-12.05.06-18.07-.08-3.21-5.08-3.22-5,0,.28,10.87-1.03,22.02,1.18,32.76.98,4.77,2.92,9.37,6.22,13.02,3.75,4.16,9.08,6.67,14.53,7.66,8.53,1.55,17.16.94,25.77.95,3.22,0,3.22-4.99,0-5h0Z"/>
        <path class="cls-3" d="M361.59,463.06c-16.86.2-35.29.48-49.91-9.23-13.8-9.17-20.35-25.74-21.08-41.79-.25-5.59-.14-11.2-.16-16.8-.02-5.9-.04-11.79-.05-17.69,0-3.22-5.01-3.22-5,0,.03,10.64-.14,21.3.12,31.93.13,5.19.55,10.4,1.72,15.47,1.01,4.37,2.59,8.64,4.49,12.69,3.42,7.29,8.42,13.72,14.81,18.63,7.06,5.41,15.54,8.56,24.24,10.13,10.17,1.83,20.52,1.79,30.81,1.67,3.22-.04,3.22-5.04,0-5h0Z"/>
      </g>
      <path class="cls-3" d="M428.47,138.26c-4.92-3.56-11.03-5.23-16.98-5.99s-12.31-.54-18.05,1.32c-2.89.94-5.61,2.31-7.88,4.36-2.39,2.16,1.15,5.69,3.54,3.54.75-.68,1.32-1.07,2.4-1.68s1.77-.89,2.85-1.26c2.41-.83,4.93-1.32,7.4-1.52,5.57-.47,11.24.09,16.57,1.79,2.73.87,5.28,2.06,7.63,3.76,1.1.79,2.79.19,3.42-.9.74-1.26.2-2.63-.9-3.42h0Z"/>
      <path class="cls-3" d="M427.91,152.45c-4.92-3.56-11.03-5.23-16.98-5.99-5.95-.76-12.31-.54-18.05,1.32-2.89.94-5.61,2.31-7.88,4.36-2.39,2.16,1.15,5.69,3.54,3.54.75-.68,1.32-1.07,2.4-1.68s1.77-.89,2.85-1.26c2.41-.83,4.93-1.32,7.4-1.52,5.57-.47,11.24.09,16.57,1.79,2.73.87,5.28,2.06,7.63,3.76,1.1.79,2.79.19,3.42-.9.74-1.26.2-2.63-.9-3.42h0Z"/>
      <path class="cls-3" d="M384.67,139.87c-.48,4.6-.93,9.18-.61,13.81.09,1.3,1.08,2.56,2.5,2.5,1.28-.06,2.6-1.1,2.5-2.5-.33-4.62.12-9.21.61-13.81.14-1.3-1.25-2.56-2.5-2.5-1.47.07-2.35,1.1-2.5,2.5h0Z"/>
      <path class="cls-3" d="M424.82,140.44c.46,4.54-.19,9-.53,13.52-.1,1.31,1.22,2.56,2.5,2.5,1.44-.06,2.39-1.1,2.5-2.5.34-4.52.99-8.98.53-13.52-.13-1.3-1.06-2.56-2.5-2.5-1.24.06-2.64,1.11-2.5,2.5h0Z"/>
      <path class="cls-3" d="M388.73,383.67c1.91,2.06,4.54,3.21,7.24,3.85,3.04.71,6.23,1.12,9.34,1.26,6.08.28,12.49-1.16,16.84-5.69,2.23-2.32-1.3-5.86-3.54-3.54-3.45,3.6-8.51,4.44-13.3,4.22-2.56-.12-5.14-.45-7.64-1-2.03-.45-3.96-1.09-5.41-2.65-2.19-2.37-5.72,1.18-3.54,3.54h0Z"/>
      <path class="cls-3" d="M389.99,401.44c9.3,4.78,20.61,4.65,29.77-.43,2.82-1.56.3-5.88-2.52-4.32-7.54,4.18-17.04,4.37-24.72.43-2.86-1.47-5.39,2.84-2.52,4.32h0Z"/>
      <path class="cls-3" d="M386.09,418.08c4.68,3.89,9.77,8.06,15.97,9.07,6.73,1.09,13.19-1.43,18.9-4.81,2.77-1.64.26-5.96-2.52-4.32-4.56,2.7-10.01,5.22-15.46,4.23s-9.42-4.45-13.35-7.71c-1.04-.86-2.52-1.02-3.54,0-.89.89-1.04,2.67,0,3.54h0Z"/>
      <path class="cls-3" d="M391.2,366.55c9.22,5.01,20.88,5.18,30.16.24,2.84-1.51.32-5.83-2.52-4.32-7.68,4.09-17.5,3.9-25.11-.24-2.83-1.54-5.35,2.78-2.52,4.32h0Z"/>
    </g>
    <path class="cls-3" d="M326.99,354.31c-1.05,1.3-1.66,2.67-1.6,4.37.09,2.66,3.21,3.17,4.66,1.26,1.52-2,1.9-4.66,1.23-7.06-.54-1.93-3.63-2.62-4.57-.6-.72,1.55-1.12,3.08-1.13,4.79,0,1.1.78,2.12,1.84,2.41,1.16.32,2.14-.26,2.82-1.15,1.72-2.23.15-5.15-2.16-6.04-.99-.39-2.33.25-2.82,1.15-1,1.83-1.89,3.84-1.46,5.98.36,1.8,1.74,3.21,3.49,3.73s3.73-.04,4.67-1.62c1.15-1.94.49-4.06-.7-5.8-.9-1.32-2.72-1.7-3.93-.51-2.69,2.67-3.61,7.53-1.18,10.7,1.61,2.1,4.2,1.58,5.59-.42,1.23-1.76,1.5-4.03.91-6.07-.5-1.72-2.9-2.55-4.18-1.1-1.57,1.77-2.52,3.94-2.55,6.32-.03,2.19.84,5,3.44,5.15,2.2.12,3.72-1.89,4.04-3.88.39-2.34-.59-4.34-2.43-5.74-1.38-1.05-3.2.15-3.67,1.49-1.12,3.22-.22,6.75,2.07,9.21.86.93,2.69,1.01,3.54,0,1.63-1.97,1.52-5.34-1.11-6.49-1.21-.53-2.71-.4-3.42.9-2.1,3.82-3.22,8.05-3.26,12.41-.02,1.78,2.18,3.27,3.76,2.16,1.21-.85,2.4-1.84,2.75-3.35s-.21-3.25-1.54-4.11c-3.06-1.97-6.04,1.52-7.22,4.07-.68,1.48-1.15,3.17-.02,4.58s3.03,1.5,4.56.71c2.5-1.29,4-4.18,3.86-6.95-.1-1.86-2.06-3.15-3.76-2.16-3.28,1.91-5.66,4.99-6.7,8.64-.53,1.85,1.25,3.56,3.08,3.08,3.65-.97,3.42-6.28-.04-7.35-1.66-.52-3.53.18-4.7,1.39-1.31,1.36-1.58,3.25-1.78,5.04-.09.78.52,1.84,1.24,2.16,1.89.84,3.92.56,5.31-1.06,1.46-1.7,1.28-4.16-.18-5.79-3-3.35-9.07-.94-9.1,3.54-.01,2.29,1.94,4.11,4.25,3.64,1.94-.39,3.35-2.02,3.69-3.95.72-4.18-3.9-7.22-7.36-4.6-1.76,1.34-2.21,3.76-.97,5.61s3.96,2.68,5.9,1.36l-3.67-1.49c.16.68.32,1.36.48,2.05.37,1.56,2.33,2.31,3.67,1.49,3.9-2.39,7.23-5.5,9.9-9.21,2.3-3.19,4.48-8.4.25-11.09-.69-.44-1.84-.49-2.52,0-3.32,2.38-5.24,7.17-3,10.97,1.2,2.03,3.59,2.87,5.8,2.06s3.42-2.78,3.77-4.96.26-4.61-1.04-6.47-3.63-2.85-5.82-2.11-3.46,2.91-4.24,4.91c-.82,2.11-.89,4.36-.48,6.56.17.95,1.18,1.68,2.08,1.79,1.07.13,1.86-.35,2.49-1.19,3.04-4.08,3.33-9.42,1.39-14.01-.89-2.09-4.02-1.27-4.57.6-.51,1.75-.83,3.55-.97,5.37-.06.84-.07,1.67-.04,2.51.03.64.26,1.45.13,2.08.03-.17.08-.03-.17.16s-.52.4-.79.59c-.71.49-1.44.95-2.19,1.38-1.31.75-2.68,1.4-4.1,1.91-2.85,1.02-5.77,1.38-8.73,1.87s-5.87,1.43-7.99,3.65c-1.18,1.24-.84,3.86,1.1,4.18,5.65.92,11.39.52,16.79-1.42,2.53-.91,2.31-4.98-.66-4.91-4.97.12-9.95.25-14.92.37-2.49.06-4.97.12-7.46.19-.98.02-1.99.13-2.97.03-.34-.03-.59-.12-.94-.2.14.03.23.34-.02-.19l-2.16,3.76c4.14.16,8.27.32,12.41.47,1.77.07,3.77.41,5.5-.14,1.84-.59,3.28-2.35,2.64-4.35s-3.55-2.51-5.29-3.01c-1.85-.54-3.74-.89-5.65-1.13-3.9-.49-7.84-.25-11.68.58-2.4.51-2.37,4.29,0,4.82,6.38,1.43,12.88,2.32,19.4,2.67l-.66-4.91c-10.69,1.72-26.58,3.6-32.01-8.64-1.06-2.39-1.52-5.05-1.64-7.66-.07-1.48-.03-2.97.08-4.45.08-1.07.06-2.37.71-3.27l.3-.17c.08.05.04.06-.14.03.01.15-.32-.08-.31-.09-.06.02.08.21.06.11.04.2.12.39.16.59.22,1.14.03,2.61.03,3.86,0,3.25.3,6.56,1.14,9.71,1.75,6.49,6.01,12.16,12.41,14.58,1.23.47,2.78-.52,3.08-1.75.71-2.97-1.67-5.21-4.41-5.83-3.17-.72-6.57-.5-9.74.08-1.49.27-2.4,2.43-1.49,3.67,1.83,2.51,4.38,4.33,7.48,4.87l-.6-4.57c-.53.29-1.06.16-1.7-.23-.76-.45-1.37-1.16-1.73-1.97-1.06-2.38-.51-5.39-.64-7.92-.16-3.04-1.08-5.9-1.7-8.86-.51-2.4-.67-4.97.69-7.11l-4.32-2.52c-2.9,5.71-2.17,12.31.63,17.91s7.58,9.91,12.19,13.99l3.03-3.93c-3.37-2.17-7.14-3.37-11.12-3.72v5c7.17-.49,14.27.32,21.13,2.44,3.08.95,4.4-3.87,1.33-4.82-7.25-2.24-14.9-3.14-22.46-2.62-3.23.22-3.2,4.71,0,5s6,1.37,8.6,3.04c2.36,1.52,5.17-2.03,3.03-3.93-4.01-3.55-8.15-7.18-10.83-11.89-2.35-4.14-3.45-9.53-1.21-13.94,1.46-2.86-2.58-5.25-4.32-2.52-1.96,3.09-1.98,6.79-1.33,10.28.36,1.92.93,3.78,1.32,5.69.36,1.73.38,3.45.38,5.22,0,3.53.28,7.08,2.74,9.82,2.24,2.5,5.78,3.55,8.82,1.92,1.79-.96,1.55-4.2-.6-4.57-1.76-.31-3.41-1.09-4.49-2.57l-1.49,3.67c1.82-.34,3.68-.41,5.53-.27.7.05,1.54.07,2.19.38.11.05.28.16.32.16.05-.1.12-.03.22.2-.22-.25-.31-.54-.26-.87l3.08-1.75c-5.84-2.21-8.78-8.54-9.59-14.34-.25-1.76-.31-3.56-.29-5.34.01-1.57.13-3.1-.15-4.66-.64-3.54-4.15-5.79-7.47-3.77s-3.21,6.33-3.29,9.61.24,6.67,1.24,9.8c2.12,6.65,7.21,11.28,13.7,13.59,8.09,2.87,16.82,1.49,25.06.16,1.21-.2,1.96-1.63,1.79-2.74-.19-1.26-1.18-2.1-2.46-2.17-6.09-.33-12.12-1.16-18.07-2.49v4.82c6.13-1.31,12.44-.6,18.21,1.82l-1.75-1.75-.03-.19.34-1.26c.11-.26.76-.16.4-.3.03.01-.39.05-.37.05-.72.04-1.47-.06-2.19-.08-1.54-.06-3.08-.12-4.62-.18-3.08-.12-6.16-.24-9.25-.35-2.05-.08-2.9,2.14-2.16,3.76.99,2.15,3.43,2.82,5.6,2.88,2.69.08,5.42-.12,8.11-.19,5.64-.14,11.28-.28,16.91-.42l-.66-4.91c-4.52,1.62-9.37,2.19-14.14,1.42l1.1,4.18c1.9-1.99,4.89-2.25,7.48-2.62,3.36-.48,6.53-1.29,9.64-2.67,1.51-.67,2.97-1.46,4.35-2.38,1.45-.96,3.07-2,3.67-3.72s.13-3.45.16-5.16.34-3.48.84-5.18l-4.57.6c1.27,3,.5,6.44-1.39,8.96l4.57.6c-.17-.91-.13-1.84.1-2.74s.75-1.54,1.11-2.37c.06-.14.23-.23.35-.33-.51.45-.3-.59.02.17s.42,1.39.36,2.25c-.05.64-.16,1.17-.55,1.68-.13.17-.13-.07.15.19-.15-.14-.17-.37-.21-.56-.26-1.3.31-2.81,1.39-3.59h-2.52s-.11-.16-.1-.21c-.07.2.07.23.05.5-.02.38-.14.83-.31,1.25-.56,1.37-1.6,2.67-2.53,3.8-2.07,2.5-4.5,4.63-7.26,6.32l3.67,1.49c-.16-.68-.32-1.36-.48-2.05-.35-1.5-2.36-2.39-3.67-1.49.51-.35.9.27.89.67,0,.24-.19.42-.25.61-.04.1-.49.1-.14.07s-.07.04-.12-.03c.53.76-.39-.43-.32-.36-.04-.05.01.21-.06.22.21-.03.36-.39.65-.27l1.1.64c.4.34.02,1.55.59.49.02-.03.1,0,.1.03-.01.03-.11-.26-.09-.36.12-.64.43-.8,1.15-.48l1.24,2.16c.06-.5.14-1.08.3-1.54.34-.17.38-.21.1-.12-.19.09-.38.06-.56-.08-1.07-.49-.58-1.92.35-2.16l3.08,3.08c.69-2.42,2.23-4.38,4.4-5.65l-3.76-2.16c.03.61-.02,1.06-.3,1.61-.13.24-.27.42-.46.61-.06.06-.11.11-.17.17-.61.3-.36.37.74.19l.9.9-.14-.28.34,1.26c-.04-.48.6-1.4.97-1.87,1.01-1.27.87,0-1.4-1.83-.28-.23.4-.57-.38-.02l3.76,2.16c.04-3.48.9-6.83,2.58-9.89l-3.42.9c.47.26.4.09-.22-.51-.02-.31.08-.6.32-.86h3.54c-1.13-1.22-1.31-2.81-.78-4.35l-3.67,1.49c-.07-.05.05.31.05.3,0-.02.05.47-.03.39l.03-.04c.31-.04.6-.16.87-.35l1.26.34c.51.27.31.63.3-.11,0-.36,0-.71.06-1.06.14-.79.49-1.51,1.02-2.11l-4.18-1.1c.11.38.18.71.12,1.1-.03.21-.15.4-.18.6-.1.55-.83.34.4-.04h1.33l.62.48-.16-.32c-.02-.19-.11-.38-.14-.57-.07-.41-.09-.86-.02-1.27.13-.77.53-1.43,1.08-1.97l-3.93-.51c.09.13.51.96.63,1.02.19.09,0-.08.15-.37.55-1.01.55-.42,1.03-.52.19-.04-.17.08-.14-.05,0-.03.1.21.09.19-.05-.2-.02-.34,0-.54.09-.7.54-1.39.86-2l-2.82,1.15c-.53-.16-.81-.49-.83-1,.24-.56.23-.66,0-.3l4.66,1.26c0-.79.12-1.54.45-2.27l-4.57-.6c.34,1.23.03,2.21-.73,3.21l4.66,1.26c0-.26-.05-.61.14-.84.85-1.05,1.03-2.51,0-3.54-.88-.88-2.68-1.06-3.54,0h0Z"/>
  </g>
  <path class="cls-3" d="M282.87,387.58l3.24,1.08c.33.1.66.12,1,.04.33-.02.64-.11.93-.3.29-.16.53-.37.7-.64.22-.24.37-.52.45-.85.15-.64.11-1.36-.25-1.93l-.39-.51c-.31-.31-.68-.52-1.1-.64l-3.24-1.08c-.33-.1-.66-.12-1-.04-.33.02-.64.11-.93.3-.29.16-.53.37-.7.64-.22.24-.37.52-.45.85-.15.64-.11,1.36.25,1.93l.39.51c.31.31.68.52,1.1.64h0Z"/>
  <path class="cls-3" d="M102.65,161.15c21.12,3.77,40.53,15.96,53.21,33.26,3.64,4.97,6.73,10.34,9.2,15.99.54,1.24,2.35,1.52,3.42.9,1.28-.75,1.44-2.18.9-3.42-9.06-20.75-26.55-37.43-47.36-46.19-5.8-2.44-11.83-4.26-18.03-5.36-1.33-.24-2.69.36-3.08,1.75-.33,1.21.41,2.84,1.75,3.08h0Z"/>
  <path class="cls-3" d="M173.19,188.46c1.88,4.68,3.75,9.36,5.63,14.03.48,1.21,1.69,2.19,3.08,1.75,1.17-.38,2.27-1.78,1.75-3.08-1.88-4.68-3.75-9.36-5.63-14.03-.48-1.21-1.69-2.19-3.08-1.75-1.17.38-2.27,1.78-1.75,3.08h0Z"/>
  <path class="cls-3" d="M91.48,337.94c10.13-18.65,25.45-34.28,43.84-44.87,5.19-2.99,10.61-5.58,16.22-7.7,1.26-.48,2.13-1.69,1.75-3.08-.33-1.21-1.81-2.23-3.08-1.75-20.88,7.9-39.27,21.6-52.89,39.28-3.79,4.92-7.19,10.13-10.16,15.59-1.54,2.83,2.78,5.36,4.32,2.52h0Z"/>
  <path class="cls-3" d="M169.43,295.24c-14.57,8.29-27.03,20.13-36.15,34.19-2.55,3.94-4.82,8.05-6.8,12.31-.57,1.22-.34,2.69.9,3.42,1.08.63,2.85.33,3.42-.9,6.75-14.48,16.93-27.3,29.59-37.05,3.66-2.82,7.54-5.37,11.56-7.65,2.8-1.59.28-5.91-2.52-4.32h0Z"/>
  <path class="cls-3" d="M452.2,211.92c10.78-10.01,22.85-18.55,35.82-25.48,13.03-6.96,26.93-12.22,41.3-15.66,8.04-1.93,16.21-3.27,24.45-3.99,1.35-.12,2.5-1.06,2.5-2.5,0-1.26-1.15-2.62-2.5-2.5-15.15,1.32-30.11,4.58-44.42,9.74s-27.95,12.09-40.48,20.69c-7.12,4.88-13.88,10.29-20.21,16.16-2.36,2.19,1.18,5.72,3.54,3.54h0Z"/>
  <path class="cls-3" d="M458.3,255.16c7.95.72,15.91,1.44,23.86,2.16,1.35.12,2.5-1.24,2.5-2.5,0-1.45-1.15-2.38-2.5-2.5-7.95-.72-15.91-1.44-23.86-2.16-1.35-.12-2.5,1.24-2.5,2.5,0,1.45,1.15,2.38,2.5,2.5h0Z"/>
  <path class="cls-3" d="M447.83,313.09c15.57,13.73,32.14,26.33,49.55,37.65,4.93,3.21,9.93,6.31,14.99,9.31,2.77,1.64,5.29-2.68,2.52-4.32-17.56-10.41-34.38-22.07-50.23-34.93-4.51-3.66-8.94-7.41-13.29-11.25-1.01-.89-2.54-1-3.54,0-.91.91-1.02,2.64,0,3.54h0Z"/>
</svg>