<?xml version="1.0" encoding="UTF-8"?>
<svg id="sunset" xmlns="http://www.w3.org/2000/svg" xmlns:xlink="http://www.w3.org/1999/xlink" viewBox="0 0 600 600">
  <defs>
    <style>
      .cls-1 {
        fill: url(#_Градієнт_без_назви_91-2);
      }

      .cls-2 {
        fill: url(#_Градієнт_без_назви_9);
        stroke: #211e1e;
        stroke-miterlimit: 10;
      }

      .cls-3 {
        fill: #211e1e;
      }

      .cls-4 {
        fill: url(#_Градієнт_без_назви_91);
      }
    </style>
    <linearGradient id="_Градієнт_без_назви_9" data-name="Градієнт без назви 9" x1="165.13" y1="446.22" x2="286.33" y2="446.22" gradientUnits="userSpaceOnUse">
      <stop offset="0" stop-color="#182da8"/>
      <stop offset="1" stop-color="#324cda"/>
    </linearGradient>
    <linearGradient id="_Градієнт_без_назви_91" data-name="Градієнт без назви 91" x1="196" y1="208.13" x2="196.11" y2="183.2" gradientUnits="userSpaceOnUse">
      <stop offset="0" stop-color="#324bd9"/>
      <stop offset="1" stop-color="#bcd9ef"/>
    </linearGradient>
    <linearGradient id="_Градієнт_без_назви_91-2" data-name="Градієнт без назви 91" x1="226.44" y1="448.27" x2="227.46" y2="220.53" xlink:href="#_Градієнт_без_назви_91"/>
  </defs>
  <path class="cls-3" d="M317.45,325.42c4.1-2.28,8.81-2.35,13.37-1.96,5.06.43,10.06,1.44,15.13,1.7,5.27.26,10.3-.73,15.31-2.26,4.85-1.48,9.77-3.32,14.91-3.29,9.6.05,17.64,6.71,26.97,8.13,5.1.78,9.9-.19,14.72-1.86,4.47-1.55,9.03-3.59,13.86-3.38,2.98.13,5.82,1.31,8.6,2.28,2.98,1.04,6,1.78,9.12,2.19,6.15.8,12.46.28,18.4-1.53,3.07-.94,1.76-5.77-1.33-4.82-5.24,1.6-10.73,2.1-16.18,1.47-2.59-.3-5.15-.93-7.62-1.75-2.56-.85-5.07-1.9-7.73-2.42-5.23-1.02-10.23.24-15.15,1.98-4.58,1.62-9.17,3.47-14.12,3.16-4.62-.3-9.03-2.27-13.24-4.04-4.5-1.89-8.99-3.71-13.88-4.25-10.63-1.18-20.07,5.49-30.59,5.47s-22.76-4.85-33.09.89c-2.81,1.56-.29,5.88,2.52,4.32h0Z"/>
  <path class="cls-3" d="M340.75,350.03c5.93,4.91,14.34,6.68,21.65,3.97,3.63-1.34,6.68-3.67,10-5.6,2.66-1.55,5.68-2.6,8.62-2.08,6.09,1.07,11.06,5.5,16.67,7.87,2.99,1.26,6.16,1.99,9.41,1.55,4.12-.56,7.43-3.01,10.97-4.98,7.42-4.13,16.77-3.96,24.08.31,2.78,1.63,5.3-2.69,2.52-4.32-6.85-4-15.29-5.06-22.93-2.89-4.02,1.14-7.32,3.4-10.95,5.37-1.44.78-3.14,1.48-4.65,1.62s-2.65-.01-4.03-.38c-5.94-1.59-10.84-5.94-16.62-8.09-3.08-1.15-6.41-1.54-9.64-.82-3.67.81-6.81,3.01-9.93,4.99-3.4,2.15-6.82,3.72-10.92,3.7-3.84-.02-7.74-1.3-10.72-3.76-1.04-.86-2.52-1.02-3.54,0-.89.89-1.05,2.67,0,3.54h0Z"/>
  <path class="cls-3" d="M358.57,381.81c4.45-3.36,10.21-4.85,15.7-3.65s9.87,4.74,14.59,7.43c4.85,2.76,10.19,4.63,15.79,3.23,5.2-1.29,9.34-4.85,14.18-6.93,2.46-1.06,5.06-1.51,7.66-.7,3.11.97,5.67,3.27,8.06,5.38,1.01.89,2.54,1,3.54,0,.91-.91,1.02-2.64,0-3.54-4.91-4.32-10.28-8.23-17.17-7-5.52.98-9.9,4.87-14.93,7.05-2.19.95-4.55,1.47-6.93,1.16-2.62-.34-5.08-1.52-7.35-2.8-5.06-2.84-9.8-6.56-15.53-7.98-6.86-1.7-14.48-.24-20.13,4.02-1.08.81-1.64,2.16-.9,3.42.62,1.06,2.34,1.72,3.42.9h0Z"/>
  <path class="cls-3" d="M276.01,209.95c3.22,0,3.22-5,0-5s-3.22,5,0,5h0Z"/>
  <ellipse class="cls-2" cx="225.73" cy="446.22" rx="60.6" ry="20.81"/>
  <path class="cls-4" d="M231.33,191.63c-10.18-2.28-34.88-11.9-49.03-12.26s-21.45,5.66-21.45,5.66v11.32s4.99,13.17,36.12,11.64c32.29-1.59,34.37-16.36,34.37-16.36Z"/>
  <path class="cls-3" d="M250.28,427.82c7.95-6.06,17-11.43,26.08-15.01,2.14-.84,4.31-1.62,6.52-2.25.21-.06.44-.1.64-.18.42-.15.24.16-.43.03.35.07.82-.05,1.17-.07,5.84-.39,11.68-1.01,17.47-1.91,3.39-.53,6.79-1.16,10.09-2.1,2.71-.78,5.58-1.74,7.76-3.6s3.82-4.33,4.34-7.08c.51-2.7,1.07-5.4,1.49-8.11,1.03-6.71,1.09-13.49-1.25-19.95-.46-1.27-1.7-2.12-3.08-1.75-1.22.34-2.21,1.8-1.75,3.08,1.93,5.33,2.14,10.91,1.37,16.49-.34,2.48-.85,4.92-1.32,7.38-.19.97-.28,2.03-.65,2.95-.45,1.13-1.28,2.11-2.14,2.96-.01.01-.84.74-.47.45.33-.27-.28.19-.38.25-.5.32-1.03.58-1.56.84-.63.31.18-.04-.5.22-.26.1-.53.2-.79.3-.71.26-1.44.49-2.17.7-3.24.95-6.58,1.58-9.91,2.11-5.2.83-10.8,1.41-16.38,1.79-2.89.2-5.54,1.19-8.25,2.21-10.2,3.86-19.75,9.36-28.42,15.96-1.07.82-1.64,2.15-.9,3.42.62,1.06,2.34,1.72,3.42.9h0Z"/>
  <path class="cls-3" d="M211.8,491.47c-.58-4.23-.45-8.56.62-12.7.96-3.7,2.61-7.12,4.42-10.47,1.53-2.83-2.79-5.36-4.32-2.52-2.06,3.82-3.96,7.78-5.01,12.01-1.23,4.96-1.22,9.98-.54,15.02.18,1.34,1.9,2.07,3.08,1.75,1.44-.4,1.93-1.73,1.75-3.08h0Z"/>
  <path class="cls-3" d="M299.85,305.3c14.85-.53,29.71-.7,44.57-.77,17.27-.09,34.55-.02,51.82.13,16.56.14,33.13.35,49.69.62,12.69.2,25.38.44,38.07.7,5.75.12,11.55.47,17.3.39.08,0,.16,0,.24,0,3.22.08,3.22-4.92,0-5-4.72-.12-9.43-.22-14.15-.32-12.06-.26-24.12-.49-36.18-.69-16.27-.27-32.54-.5-48.82-.65-17.3-.17-34.6-.26-51.9-.21-15.27.05-30.55.18-45.82.64-1.61.05-3.21.1-4.82.16-3.21.11-3.22,5.12,0,5h0Z"/>
  <path class="cls-3" d="M451.94,297.99c1.75-15.85-.26-32.3-7.8-46.52-6.31-11.91-16.29-21.11-28.79-26.22-13.82-5.66-29.96-6-44.05-1.07-14.38,5.03-26.09,15.6-33.14,29.06-7.03,13.42-9.53,29.12-6.64,44.02.35,1.81.79,3.6,1.31,5.38.9,3.08,5.72,1.77,4.82-1.33-3.92-13.44-2.8-28.14,2.67-41.01,5.48-12.9,15.29-23.78,28.12-29.63,12.64-5.76,27.53-6.41,40.74-2.33,6.52,2.01,12.74,5.24,17.96,9.65,4.34,3.66,7.76,7.76,10.66,12.47,7.5,12.15,10.27,26.57,9.67,40.72-.1,2.28-.28,4.55-.53,6.81-.15,1.34,1.26,2.5,2.5,2.5,1.47,0,2.35-1.15,2.5-2.5h0Z"/>
  <path class="cls-1" d="M295.16,198.81s-.3,25.83-11.75,57.8c-4.81,13.44-10.11,22.61-17.32,34.07-1.75.18-4.35,1.96-6.75,3.22-1.22-1.61-3.24-1.84-5.05-1.11-.04.01-.09.02-.14.03-.07,0-.13.02-.2.03-.39-.1-.78-.1-1.17,0-.72.1-1.34.25-2,.64-.57.34-1.07.8-1.51,1.28-.11.13-.36.54-.59.95.18-.37-.03-.11-.28.25-.33.31-.63.65-.9,1.07-.08.12-.16.25-.22.38-.16.37-.32.75-.48,1.13.11-.22.21-.43.32-.64-.17.38-.33.77-.49,1.15.12-.26.23-.53.35-.8-.17.48-.42.9-.53,1.39-.31,1.37-.09,2.73.45,4,.01.01.01.03.02.04,0,0,.01.02.05.12,0,.01.01.01.01.02.02.05.04.09.05.13.05.1.1.22.17.39.17.4.32.76.56,1.12.35.53.74.99,1.19,1.38.78,2.41,2.19,4.49,4.14,5.42-.93,1.75-3.8,6.23-4.58,7.92-.38.83-.8,2.23-1.24,4.03-.79-.18-1.6-.26-2.44-.21-1.31.08-2.56.4-3.76.87-.51.08-1.02.2-1.52.38-2.05.53-3.84,1.82-4.94,3.7-1.59,2.71-1.19,5.4,0,8.12.03.06.05.13.08.19.33.75.81,1.36,1.36,1.87.07.19.13.38.21.56.05.22.08.45.15.67.01.01.96,2.78.87,2.13.14.25.28.48.43.71-.02,2.22,1.35,4.87,3.4,5.84.51.24,1,.43,1.49.58-1.23,7.35-2.33,13.88-3.06,16.57-1.28,23.75-.33,78.67-2.93,79.7-18.19,7.21-22.42-4.32-22.42-4.32,1.42-23.82-1.43-67.1-3.43-92.6.71.37,1.41.72,2.11,1.05,0-.69-.03-1.38-.1-2.06-.05-.8-.14-1.59-.28-2.38-.24-1.33-.86-2.34-1.7-3.07-.01-.56-.05-1.11-.15-1.67-.42-2.22-.89-4.42-1.24-6.66.02-1.29.02-2.05-.03-2.04-.2-2.24-.31-3.49-.31-3.49l-1.39-3.02c-.73-3.05-1.51-6.09-2.16-9.22-.84-4.06-1.84-7.58-3.49-11.23-.06-.78-.28-1.48-.7-2.2-.27-.47-.6-.84-.96-1.14-.2-.39-.45-.71-.73-.98.02-.58-.01-1.16-.28-1.84-.48-1.19-1.28-2.07-2.2-2.87-.72-6.02-2.17-14.6-4.29-22.1-4.02-14.27-19.35-20.03-24.04-24.1-4.68-4.07-8.84-54.15-8.84-54.15,0,0,28.43,23.59,51.82,7.32,50.98-35.46,83.36-4.32,83.36-4.32Z"/>
  <path class="cls-3" d="M191.38,337.37c3.8-12.23,6.76-24.93,7.16-37.78.39-12.39-2-24.71-9.24-34.98-1.82-2.58-3.82-5.1-6.14-7.26s-4.78-3.6-7.6-4.83-5.66-2.29-8.64-2.03c-3.03.26-5.41,2-6.54,4.83-.88,2.23-.84,4.78-.58,7.13.31,2.86.92,5.68,1.65,8.47.64,2.42,1.44,4.8,2.03,7.23.77,3.15,1.07,6.37.97,9.62-.2,6.51-2.19,12.85-5.8,18.27-3.71,5.58-8.86,10.06-13.88,14.43-8.25,7.18-15.81,14.89-22.23,23.77-12.11,16.75-19.35,36.43-22.97,56.68-4.24,23.73-4.17,48.05-2.85,72.04.18,3.23.38,6.46.61,9.69.09,1.35,1.08,2.5,2.5,2.5,1.28,0,2.59-1.15,2.5-2.5-1.66-23.89-2.4-48.11.74-71.92,2.6-19.77,8.25-39.22,18.69-56.29,5.19-8.5,11.48-16.26,18.61-23.22,8.95-8.73,20.12-15.99,25.44-27.74,2.69-5.94,3.96-12.49,3.61-19.02-.31-5.74-2.23-11-3.57-16.53-.59-2.43-1.11-4.9-1.19-7.41-.02-.6-.02-1.2.03-1.79s0-.34.14-.93c.12-.52.24-.84.41-1.12-.03.05.49-.67.29-.44.23-.27.35-.32.44-.38.61-.41,1.42-.47,2.47-.36,1.3.13,2.63.59,3.87,1.06,2.54.97,5.02,2.25,7.04,4.08,8.53,7.75,13.06,18.93,13.99,30.25,1.01,12.34-1.17,24.77-4.33,36.66-.76,2.85-1.58,5.68-2.46,8.5-.96,3.08,3.87,4.4,4.82,1.33h0Z"/>
  <path class="cls-3" d="M190.36,339.15c4.8-2.65,9.3-5.8,13.57-9.23,1.85-1.49,3.68-3.02,5.38-4.67,2.31-2.25-1.23-5.78-3.54-3.54-1.64,1.6-3.41,3.08-5.2,4.53-3.73,3.01-8.23,6.11-12.74,8.6-1.18.65-1.57,2.28-.9,3.42.7,1.19,2.23,1.55,3.42.9h0Z"/>
  <path class="cls-3" d="M163.42,258.29c1.97,3.75,3.6,7.65,4.82,11.7.3.98.66,2.01.82,3.02.04.24.07.33.04.48-.04.24.11-.1-.06.08-.11.13-.24.24-.37.36-.2.18-1.06.71-1.54,1.03-.73.5-1.47,1.03-2.06,1.69-.89,1.01-1,2.54,0,3.54.91.91,2.64,1.02,3.54,0,1.03-1.17,2.75-1.79,3.97-3.09,2.02-2.13,1.53-4.74.81-7.31-1.37-4.86-3.3-9.56-5.65-14.03-1.5-2.85-5.82-.32-4.32,2.52h0Z"/>
  <g>
    <path class="cls-3" d="M194.81,295.03c7.52,15.95,13.16,32.93,14.92,50.34.78,7.72,1.01,15.49,1.24,23.24.35,11.68.48,23.37.51,35.06.03,13.19-.06,26.38-.09,39.57,0,3.22,4.99,3.22,5,0,.06-23.64.3-47.29-.32-70.93-.42-16.14-.99-32.29-5.06-48.01-2.84-10.98-7.07-21.55-11.9-31.8-.58-1.22-2.33-1.54-3.42-.9-1.25.73-1.47,2.19-.9,3.42h0Z"/>
    <path class="cls-3" d="M172.52,119.2c-7.67,16.32-12.61,33.73-14.89,51.6s-1.78,35.88,1.29,53.55c1.72,9.92,4.3,19.68,7.69,29.16.45,1.27,1.7,2.12,3.08,1.75,1.23-.34,2.2-1.8,1.75-3.08-5.89-16.46-9.3-33.76-10.06-51.23s1.04-34.86,5.49-51.69c2.5-9.45,5.81-18.69,9.97-27.54.57-1.22.34-2.7-.9-3.42-1.09-.63-2.84-.33-3.42.9h0Z"/>
    <path class="cls-3" d="M237.8,346.03c-.69,9.36-1.78,18.67-2.19,28.05-.63,14.62-.56,29.26-.51,43.89.04,8.75.1,17.5.12,26.25,0,3.22,5.01,3.22,5,0-.04-15.48-.21-30.96-.12-46.44.09-13.58.51-27.1,1.66-40.63.32-3.71.76-7.41,1.03-11.12.1-1.35-1.22-2.5-2.5-2.5-1.44,0-2.4,1.15-2.5,2.5h0Z"/>
    <path class="cls-3" d="M276.6,121.72c10.03,21.35,15.2,44.88,15.6,68.44.41,24-4.06,48.12-13.4,70.26-4.15,9.84-9.6,19.05-15.22,28.11-1.7,2.74,2.62,5.26,4.32,2.52,4.93-7.95,9.81-16.03,13.67-24.57,5.26-11.65,9.25-23.86,11.85-36.39,4.92-23.7,5.07-48.32.31-72.06-2.69-13.41-7-26.46-12.82-38.83-.57-1.22-2.33-1.53-3.42-.9-1.25.73-1.47,2.19-.9,3.42h0Z"/>
  </g>
  <path class="cls-3" d="M278.72,116.48c-7.19-4.84-15.72-7.11-24.17-8.52-9.57-1.59-19.27-2.45-28.97-2.58-9.08-.12-18.2.35-27.13,2.03-4.27.8-8.49,1.9-12.58,3.39-2.1.76-4.17,1.62-6.19,2.58-1.89.89-4.06,1.79-5.63,3.21-2.55,2.3-1.77,6.35,1.17,7.9,1.08.57,2.33.93,3.49,1.29,4.53,1.42,9.2,2.43,13.87,3.28,16.72,3.01,33.96,3.75,50.88,2.17,6.99-.65,13.95-1.7,20.83-3.14,2.4-.5,4.79-1.05,7.17-1.63,3.19-.77,7.63-1.67,9.31-4.86.52-.99.48-2.25-.08-3.22-.81-1.41-2.38-1.47-3.72-.91-1.24.53-1.52,2.36-.9,3.42.75,1.29,2.17,1.42,3.42.9l.17-.07h-2.52l.13.08-.9-.9.09.19-.34-1.26c-.03-.25.69-.84.23-.62-.16.08-.31.31-.45.41-.26.2-.56.36-.85.51-.77.41-1.61.66-2.45.9-1.06.29-2.13.54-3.2.79-2.23.53-4.48,1.04-6.73,1.51-6.15,1.27-12.36,2.24-18.62,2.84-15.57,1.51-31.45,1.08-46.9-1.38-4.92-.78-9.82-1.76-14.62-3.09-1.37-.38-2.74-.78-4.08-1.26-.22-.08-.44-.16-.67-.25-.08-.03-.16-.07-.24-.09-.46-.16.5.18.27.11-.11-.03-.21-.1-.31-.15-.34-.19.29.16-.04-.02-.02,0-.2.32-.03.21.29-.2.59-.38.9-.55.88-.5,1.78-.97,2.68-1.42,1.74-.87,3.53-1.65,5.35-2.34,3.72-1.41,7.57-2.49,11.46-3.3,7.83-1.64,15.84-2.19,23.83-2.25,8.86-.06,17.74.48,26.53,1.66,7.74,1.04,15.75,2.41,22.85,5.82,1.78.86,3.5,1.84,5.14,2.95,2.68,1.8,5.18-2.53,2.52-4.32h0Z"/>
  <path class="cls-3" d="M293.35,194.68c-8.89-5.54-18.5-10.67-29.05-11.94-8.46-1.02-16.66,1.27-24.38,4.56-10.25,4.38-19.66,10.54-30.12,14.46-4.22,1.58-8.86,2.93-13.17,3.51-1.99.27-4.02.38-6.03.35-.94-.01-1.87-.06-2.8-.14-.41-.04-.83-.08-1.24-.13-.08,0-.65-.09-.29-.03-.27-.04-.54-.08-.81-.12-8.89-1.46-16.49-5.86-24.11-10.6-2.74-1.71-5.25,2.62-2.52,4.32,6.9,4.3,14.15,8.47,22.11,10.44s16.54,1.4,24.56-.9c11.06-3.17,20.86-9.15,31.13-14.16,7.46-3.64,15.41-6.86,23.59-6.81,10.95.06,21.39,5.77,30.61,11.52,2.74,1.71,5.25-2.62,2.52-4.32h0Z"/>
  <g>
    <path class="cls-3" d="M213.89,423.87c-9.46-.04-19.12.89-28.27,3.39-4.57,1.25-9.11,2.94-13.17,5.41-3.23,1.96-6.51,4.47-8.41,7.82-5.66,9.98,6.83,16.84,14.34,20.2,9.15,4.09,18.89,6.26,28.74,7.88,9.45,1.56,18.91,1.53,28.46,1.11,3.21-.14,3.22-5.14,0-5-8.14.35-16.34.57-24.44-.52.39.05-.55-.08-.7-.1-.37-.05-.75-.11-1.12-.17-.76-.12-1.51-.25-2.27-.38-1.68-.29-3.35-.61-5.03-.92-5.23-.98-10.39-2.24-15.42-3.99-4.63-1.61-9.12-3.63-13.27-6.25-1.87-1.18-3.84-2.52-5-4.46-.41-.69-.58-1.06-.71-1.9-.07-.46,0,.55,0-.23,0-.17,0-.34,0-.51,0-.07.04-.49-.01-.08.03-.25.09-.5.16-.74.32-1.18,1.15-2.41,2.09-3.42,1.22-1.3,2.4-2.24,3.82-3.19,3.4-2.28,7.16-3.88,11.06-5.09,9.37-2.9,19.36-3.89,29.14-3.85,3.22.01,3.22-4.99,0-5h0Z"/>
    <path class="cls-3" d="M239.51,428.87c8.41-.03,16.89.73,25.07,2.73,4.19,1.03,8.34,2.37,12.14,4.42,3.27,1.76,6.87,4.06,8.47,7.24.22.44.07.14.03.04.07.17.13.35.18.53.08.28.15.55.2.83.08.4-.01-.59,0,.06,0,.14.01.27.01.41s0,.27-.01.41c-.02.65.12-.49-.02.14-.06.27-.13.53-.21.8-.04.13-.09.27-.14.4.18-.48.01-.03-.05.09-.27.51-.78,1.33-.97,1.57-1.88,2.38-4.92,4.26-7.85,5.79-8.11,4.25-17.26,6.74-26.2,8.54-10.74,2.16-21.47,2.17-32.37,1.83-3.22-.1-3.21,4.9,0,5,10.39.33,20.65.34,30.92-1.48,9.94-1.76,20.03-4.52,29.1-9.02,5.87-2.91,13.98-8.07,12.63-15.76-.69-3.9-3.86-6.84-6.91-9.05-3.97-2.88-8.54-4.89-13.2-6.36-9.87-3.12-20.51-4.18-30.83-4.14-3.22.01-3.22,5.01,0,5h0Z"/>
  </g>
  <path class="cls-3" d="M212.23,445.99c3.06,3.45,8.45,4.45,12.82,4.65,5.04.24,10.34-.74,14.4-3.88,1.07-.83.87-2.67,0-3.54-1.05-1.05-2.46-.83-3.54,0,.31-.24-.33.21-.33.2-.18.12-.37.23-.56.34s-.39.22-.59.31c.02,0-.67.32-.4.2-.92.4-1.9.67-2.87.89-1.96.44-3.98.57-6.12.47-1.96-.09-3.66-.36-5.62-1-1.45-.48-2.7-1.1-3.66-2.18-.9-1.01-2.62-.91-3.54,0-1,1-.9,2.52,0,3.54h0Z"/>
  <path class="cls-3" d="M324.15,367.51c-1.95-4.9-6.12-7.43-11-8.91-6.2-1.88-12.73-2.62-19.04-4.07-3.44-.79-6.78-2.08-10.24-2.76-3.24-.63-7.18-.37-8.88,2.95-1.43,2.79-1.08,6.37-.52,9.35.68,3.59,2.83,6.59,5.42,9.08,3.33,3.21,7.4,5.74,11.84,7.1,4.22,1.3,8.65,1.37,12.97,2.17,1.33.24,2.7-.36,3.08-1.75.33-1.21-.41-2.83-1.75-3.08-3.43-.63-6.92-.78-10.34-1.49-3.48-.73-6.64-2.13-9.53-4.19-2.43-1.74-5.01-4.11-6.22-6.9-.87-2-1.12-4.61-.88-6.61.04-.29.1-.59.18-.87,0,.02.3-.81.13-.41.22-.5-.22.07.17-.27-.1.08.46-.29.47-.29.74-.3,2.21-.06,3.24.18,2.99.7,5.9,1.75,8.9,2.46,5.77,1.36,11.66,2.18,17.42,3.61,1.29.32,2.57.68,3.82,1.13.7.25.83.3,1.3.53.43.21.86.43,1.28.67.2.12.4.24.59.37.08.05.81.6.41.28.41.33.77.69,1.13,1.06.04.04.5.6.17.18.18.24.35.49.5.74.12.19.23.39.34.59.04.08.41.91.23.47.5,1.25,1.67,2.13,3.08,1.75,1.19-.33,2.25-1.81,1.75-3.08h0Z"/>
  <path class="cls-3" d="M308.07,358.19c.02-3.68.5-7.37.36-11.05-.15-3.95-.93-7.95-2.22-11.69-1.8-5.21-4.81-10.01-9.67-12.84-4.28-2.49-9.29-3.18-14.14-3.48-6.18-.38-12.29-.19-18.41.79-7.41,1.19-14.81,2.39-22.21,3.58-.81.13-1.62.26-2.43.39-1.85.3-3.68.79-5.12,2.05s-2.15,3.26-2.26,5.2c-.2,3.3,1.09,6.92,2.55,9.84,1.29,2.57,3.14,4.93,5.39,6.72,4.82,3.85,10.96,5.34,17.06,5.11,5.99-.22,11.89-1.77,17.88-2.13,1.23-.07,2.47-.12,3.7,0,1.35.12,2.5-1.24,2.5-2.5,0-1.46-1.15-2.38-2.5-2.5-2.6-.24-5.27.09-7.85.38-2.91.33-5.81.76-8.7,1.21-5.09.78-10.5.93-15.1-1.1s-7.91-6.04-9.33-11.1c-.37-1.34-.82-2.88-.56-4.28.24-1.3,1.34-1.61,2.51-1.86.91-.19,1.84-.32,2.76-.47,7.25-1.17,14.49-2.34,21.74-3.51,4.81-.78,9.61-1.15,14.49-1,2.34.07,4.69.17,7.02.43.13.01.7.08.55.06s.42.06.54.08c.57.09,1.14.19,1.7.31,1.02.22,2.03.48,3.01.82.26.09.52.19.78.29.43.16-.15-.08.27.11.5.23.99.47,1.47.74.98.55,1.62,1,2.22,1.52,1.85,1.61,2.93,3.13,4.04,5.32,1.35,2.64,2.15,5.54,2.74,8.43.8,3.87.61,7.67.42,11.59-.07,1.51-.15,3.01-.16,4.52-.02,3.22,4.98,3.22,5,0h0Z"/>
  <path class="cls-3" d="M260.07,289.31c-2.64.5-5.22,1.21-7.8,1.95-1.9.54-3.78,1.07-5.4,2.26-3.33,2.45-5.15,6.54-3.84,10.62s5.07,7.28,8.97,9.13c4.52,2.15,9.48,3.55,14.5,3.77,3.97.17,8-.67,11.9-1.34,1.33-.23,2.08-1.87,1.75-3.08-.39-1.41-1.74-1.98-3.08-1.75-2.53.44-5.01.87-7.49,1.09-4.29.38-8.58-.53-12.59-2-3.1-1.14-6.44-2.73-8.32-5.59-.41-.62-.71-1.2-.9-1.87-.14-.5-.13-.4-.15-.73-.01-.18-.02-.36-.01-.54,0-.01.08-.8.01-.39.23-1.38.74-2.07,1.77-2.98s2.56-1.31,4.22-1.79c2.58-.74,5.16-1.45,7.8-1.95,1.33-.25,2.08-1.85,1.75-3.08-.38-1.39-1.74-2-3.08-1.75h0Z"/>
  <path class="cls-3" d="M260.15,294.32c5.62-1.16,11.26-2.2,16.92-3.13,2.13-.35,4.16-.74,6.34-.64,2.81.13,5.75.83,8.19,2.26.12.07.24.16.36.25-.44-.32.13.12.18.17.3.29.59.58.86.89.07.08.37.48.11.13.14.19.27.39.4.59.27.41.51.84.73,1.27.5.96.59,1.22.94,2.26.35,1.03.63,2.08.87,3.13.46,2.07.66,3.54.83,5.48.16,1.76.23,3.52.23,5.29,0,.72-.01,1.43-.05,2.15-.01.24-.03.47-.05.7-.05.73.15-.27-.06.32-.8,2.22-2.43,4.59-4.41,5.57-2.88,1.43-.35,5.74,2.52,4.32,2.44-1.21,4.54-3.82,5.77-6.2.88-1.7,1.18-3.41,1.25-5.28.14-3.93-.17-7.91-.85-11.78-.75-4.3-2.14-9.12-5.41-12.22-2.03-1.93-4.83-2.96-7.52-3.6-3.65-.87-7.45-.93-11.13-.16-6.1,1.26-12.27,2.16-18.38,3.42-1.32.27-2.09,1.83-1.75,3.08.38,1.37,1.75,2.02,3.08,1.75h0Z"/>
  <path class="cls-3" d="M296.03,292.04c5.71-5.57,11.09-11.51,16.06-17.75,2.49-3.12,4.89-6.32,7.11-9.65,2.15-3.23,4.25-6.89,4.05-10.91-.17-3.5-1.91-6.83-5.27-8.16-2.61-1.03-5.62-.72-8.28-.05-7.09,1.79-12.62,6.42-18.15,10.92-5.85,4.77-12.01,9.38-17.18,14.91-2.2,2.35,1.33,5.89,3.54,3.54,4.22-4.51,9.14-8.38,13.92-12.26,4.91-3.99,9.63-8.42,15.49-11.01,2.31-1.02,4.81-1.78,7.17-1.71.16,0,.82.06.69.04-.16-.02.39.08.51.11.23.06.45.12.67.2.27.1-.04-.02-.08-.04.13.06.26.13.39.21.15.09.5.38.19.11.19.17.4.36.55.57.37.48.57,1.06.72,1.64.79,3.18-1.22,6.3-2.88,8.84-1.91,2.91-3.97,5.73-6.13,8.47-5.12,6.49-10.68,12.66-16.6,18.43-2.31,2.25,1.23,5.78,3.54,3.54h0Z"/>
  <path class="cls-3" d="M251.6,308.29c-1.42,1.81-2.38,3.85-3.22,5.99-1.08,2.73-1.87,5.58-2.47,8.45-.27,1.28.37,2.76,1.75,3.08,1.25.29,2.79-.38,3.08-1.75.58-2.75,1.32-5.47,2.33-8.09.1-.27.21-.53.32-.8.13-.33-.18.41-.04.09.06-.14.12-.27.18-.41.2-.45.41-.9.64-1.33.21-.4.43-.8.67-1.18.1-.16.2-.32.31-.48.13-.19.56-.74,0-.04.81-1.03,1.08-2.55,0-3.54-.9-.83-2.67-1.1-3.54,0h0Z"/>
  <path class="cls-3" d="M251.69,310.56c4.11-.41,8.21-1.03,12.28-1.77,3.78-.69,8.95-1.17,10.83-5.08s.75-9.46-2.59-12.33c-2.8-2.4-6.36-2.41-9.85-1.96-4.12.52-8.11,1.61-12.13,2.65-3.11.81-1.79,5.63,1.33,4.82,2.9-.75,5.78-1.55,8.72-2.11,1.63-.31,2.89-.51,4.55-.58.7-.03,1.4-.02,2.1.04.44.04-.18-.08.38.07.31.08.62.16.93.26-.67-.23-.01.04.19.17.37.23.14.09.05.02.13.1.26.22.39.33.6.55.95.94,1.31,1.66.52,1.03.63,2.88.39,4.01-.32,1.47-1.54,1.82-3.02,2.19s-3.04.68-4.58.96c-3.79.7-7.48,1.27-11.27,1.65-1.34.14-2.5,1.05-2.5,2.5,0,1.25,1.15,2.64,2.5,2.5h0Z"/>
  <path class="cls-3" d="M237.8,342.3c3.54.09,7.09-.27,10.61-.65,1.68-.18,3.36-.37,5.04-.57,2.06-.24,4.01-.61,5.63-2,2.69-2.3,3.33-7.15,2.18-10.38-1.43-4.03-6.46-5.13-10.23-5.48-4.57-.42-9.22.27-13.68,1.22-1.32.28-2.09,1.83-1.75,3.08.38,1.37,1.75,2.03,3.08,1.75,3.22-.69,6.44-1.16,9.74-1.16,1.47,0,2.94.07,4.37.39,1.13.25,2.68.62,3.5,1.45.63.64.47,2.19.39,3.09-.07.85-.35,1.9-1.02,2.41-.91.68-2.41.67-3.52.79-1.42.16-2.83.32-4.25.47-3.35.35-6.73.68-10.1.59-3.22-.09-3.22,4.92,0,5h0Z"/>
  <path class="cls-3" d="M276.12,378.51c.58.24,1.22.34,1.83.44,1.16.18,2.33.31,3.51.37,2.59.14,5.18-.01,7.74-.46,1.29-.23,2.13-1.88,1.75-3.08-.45-1.39-1.69-1.99-3.08-1.75-.13.02-.26.04-.39.07-.02,0-.64.09-.25.04.34-.04-.1.01-.16.02-.16.02-.33.04-.5.05-.56.06-1.13.09-1.69.12-1.14.05-2.28.04-3.43-.02-.48-.03-.96-.06-1.44-.11-.23-.02-.46-.06-.69-.08-.33-.03.55.08.23.03-.11-.02-.23-.03-.34-.05-.59-.1-1.21-.2-1.77-.43-1.21-.49-2.8.54-3.08,1.75-.33,1.45.45,2.55,1.75,3.08h0Z"/>
  <path class="cls-3" d="M278.33,367.32c2.25.76,4.51,1.51,6.83,2.04,2.34.53,4.99,1.08,7.37.46,2.11-.55,3.84-2.17,4.76-4.12,1.08-2.27,1.19-4.75,1.17-7.23,0-1.35-1.14-2.5-2.5-2.5s-2.51,1.14-2.5,2.5c0,.96.01,1.92-.07,2.87-.03.35-.09.65-.19,1.06-.06.23-.13.46-.2.69-.04.14-.13.33-.02.08-.15.33-.34.65-.54.96-.1.14-.09.13.02-.02l-.16.18c-.11.11-.23.23-.34.34-.5.47.17-.08-.16.11-.07.04-.54.27-.16.12-.35.14-.78.21-.95.21-3.67.12-7.53-1.41-11.02-2.58-1.28-.43-2.73.5-3.08,1.75-.38,1.37.46,2.64,1.75,3.08h0Z"/>
  <path class="cls-3" d="M161.23,186.65c9.08-4.79,19.82-6.49,29.92-4.63,10.87,2,20.71,7.38,31.39,10.04,6.03,1.5,12.11,1.72,18.15.18,3.12-.79,1.8-5.62-1.33-4.82-5.1,1.3-10.19,1.12-15.28-.13-5.42-1.33-10.63-3.39-15.85-5.33-5.21-1.94-10.48-3.82-15.97-4.8s-10.94-1.09-16.42-.34c-6,.82-11.78,2.69-17.13,5.51-2.85,1.5-.32,5.82,2.52,4.32h0Z"/>
</svg>