<svg width="2169" height="469" viewBox="0 0 2169 469" fill="none" xmlns="http://www.w3.org/2000/svg">
<path d="M420.897 246.303C449.209 246.088 481.885 251.026 502.286 271.954C540.065 310.708 518.444 375.583 484.761 408.617C431.699 460.66 347.932 467.841 277.737 468.066C180.953 469.639 137.851 430.319 212.292 347.451C261.989 292.129 344.884 250.517 419.729 246.313L420.897 246.303ZM46.6089 68.0098C60.9184 67.6948 73.5778 70.7864 87.3892 75.7773C163.524 103.292 220.662 189.802 211.921 270.752C206.403 321.861 164.906 383.661 129.625 420.489C111.428 437.918 90.4328 454.677 64.9712 459.363C50.8016 461.971 34.1664 460.862 22.0815 452.44C11.7526 445.241 8.79048 436.304 6.65088 424.461C-2.00414 376.55 -5.24441 113.178 16.0747 82.8154C22.582 73.5475 32.5162 69.9452 43.2231 68.1152C44.3514 68.0702 45.48 68.0348 46.6089 68.0098ZM2107.22 125.307C2132.83 125.021 2167.64 119.556 2168.22 154.719C2168.36 163.566 2168.21 172.427 2168.17 181.265L2168.2 232.452C2168.27 280.656 2172.76 335.645 2134.78 370.431C2066.84 432.651 1930.38 428.768 1868.04 359.342C1864.46 355.355 1856.41 346.439 1855.95 341.489C1853.03 309.816 1854.4 276.338 1854.48 244.314V125.646C1890.98 125.264 1918.48 119.492 1915.66 167.525C1915.2 175.351 1915.62 186.308 1915.61 194.37L1915.41 280.797C1915.39 288.692 1914.42 309.392 1916.44 315.452C1925.62 342.933 1967.26 355.204 1991.57 355.527C2034.91 356.102 2093.2 347.219 2104.81 297.885C2109.04 279.921 2106.27 259.026 2107.07 240.585C2107.9 202.448 2105.62 163.343 2107.22 125.307ZM1413.34 194.514C1413.22 148.301 1406.12 120.631 1463.06 125.573C1466.29 125.854 1471.37 125.621 1474.83 125.646V204.314L1474.91 288.927C1474.92 303.88 1475.21 318.864 1474.57 333.786C1474.2 347.016 1466.24 354.156 1457.72 362.779C1428.9 391.914 1387.12 410.259 1346.23 413.31C1278.78 418.341 1193.87 400.811 1168.66 329.349C1164.89 318.378 1162.53 306.971 1161.64 295.405C1157.93 251.114 1163.27 198.441 1160.9 153.44C1160.19 140.057 1170.02 130.264 1182.42 125.905C1192.43 125.101 1211.57 125.647 1222.24 125.646L1222.17 273.679C1222.34 294.807 1224.8 312.335 1241.18 327.982C1265.01 350.747 1300.95 355.502 1332.77 355.632C1360.32 355.744 1396.84 345.844 1411.04 319.687C1414.82 312.739 1413.65 290.391 1413.62 281.156L1413.34 194.514ZM1761.08 161.832C1761.23 118.788 1789.03 125.381 1822.5 125.646V183.314L1822.53 285.767C1822.54 301.393 1823.58 323.474 1821.28 338.53C1818.52 347.589 1809.52 359.312 1802.8 365.608C1740.11 424.421 1621.92 429.099 1551.04 382.647C1537.35 373.68 1510.6 358.052 1508.32 341.438C1505.63 321.891 1506.76 291.676 1506.76 271.577L1506.82 125.646C1573.1 125.022 1568.21 129.587 1568.05 193.711L1567.88 279.724C1567.86 290.357 1567.12 304.489 1568.86 314.635C1570.36 323.389 1581.42 331.762 1588.95 336.357C1622.74 356.962 1668.13 359.914 1706.04 351.301C1726.51 346.651 1749.51 334.925 1760.72 316.585C1762.06 303.744 1761.28 279.625 1761.27 265.588L1761.08 161.832ZM1082.21 55.0381C1091.29 54.2641 1110.89 54.8144 1120.74 54.8145L1120.68 274.505C1120.65 306.704 1120.9 338.91 1120.92 371.108C1120.93 390.57 1117.4 402.055 1097.57 408.678C1088.18 409.47 1069.49 408.981 1059.48 408.982L1059.54 186.892C1059.59 153.285 1059.11 119.661 1059.47 86.0654C1059.65 69.2416 1067.15 60.8571 1082.21 55.0381ZM846.664 54.624C894.354 55.493 942.781 47.2001 978.404 86.7061C994.897 105.207 1003.42 129.48 1002.09 154.231C1000.69 180.198 990.263 199.534 971.241 216.664C1031.82 242.749 1048.77 304.349 1014.17 359.512C1010.67 364.495 1006.79 369.195 1002.56 373.567C976.537 399.977 944.902 407.366 908.966 407.636L740.806 407.734L692.027 407.714C676.995 407.702 657.772 410.211 646.917 398.439C635.973 386.57 638.941 357.115 638.943 341.323L638.948 274.148L638.987 54.6465L813.667 54.6289C824.628 54.6279 835.709 54.425 846.664 54.624ZM926.3 253.954C902.171 251.164 873.204 252.273 848.643 252.276L700.155 252.325V347.646L851.643 347.607C875.696 347.624 901.554 348.808 925.504 346.46C933.909 345.636 945.397 339.596 951.562 333.735C961.044 323.611 966.621 312.719 966.171 298.437C965.846 286.179 960.583 274.572 951.576 266.251C945.119 260.252 934.96 254.955 926.3 253.954ZM194.004 0.283203C258.667 0.305997 336.289 -3.60609 398.17 16.9502C429.663 27.412 468.959 57.195 482.526 88.4209C503.609 136.95 492.938 193.937 441.504 217.411C420.919 225.222 403.301 228.411 381.107 227.534C347.194 225.873 314.136 216.319 284.568 199.629C245.269 177.495 205.575 135.484 171.488 105.018C155.577 91.0337 138.794 78.0747 121.239 66.2197C98.2189 50.7509 74.1429 36.913 49.188 24.8096C42.3004 21.5382 13.7475 13.1941 14.2046 4.86719C19.6203 -0.841976 44.3675 0.764024 53.4771 0.314453L194.004 0.283203ZM700.155 114.65V198.814L843.047 198.864C862.949 198.87 885.536 199.389 905.416 198.276C912.384 197.885 919.991 192.693 924.988 187.745C925.354 187.383 925.71 187.011 926.056 186.63C946.388 158.807 937.504 115.101 898.362 114.783C877.685 114.615 857.025 114.596 836.345 114.6L700.155 114.65Z" fill="#F9F9F9"/>
</svg>
