<svg width="111" height="111" viewBox="0 0 111 111" fill="none" xmlns="http://www.w3.org/2000/svg">
<path d="M55.1965 110.393C85.6806 110.393 110.393 85.6806 110.393 55.1965C110.393 24.7123 85.6806 0 55.1965 0C24.7123 0 0 24.7123 0 55.1965C0 85.6806 24.7123 110.393 55.1965 110.393Z" fill="#34E0A1"/>
<path d="M89.2887 44.4287L95.9493 37.1822H81.1788C73.7844 32.1312 64.8542 29.1895 55.1964 29.1895C45.5507 29.1895 36.6455 32.1375 29.2632 37.1822H14.4558L21.1164 44.4287C17.0338 48.1536 14.4744 53.5192 14.4744 59.4767C14.4744 70.7196 23.5896 79.8346 34.8324 79.8346C40.1733 79.8346 45.0391 77.7748 48.6716 74.4075L55.1965 81.5121L61.7214 74.4137C65.354 77.781 70.2136 79.8346 75.5544 79.8346C86.7972 79.8346 95.9247 70.7196 95.9247 59.4767C95.9307 53.513 93.3715 48.1476 89.2887 44.4287ZM34.8385 73.2542C27.228 73.2542 21.061 67.0872 21.061 59.4767C21.061 51.8663 27.2282 45.6991 34.8385 45.6991C42.4487 45.6991 48.6159 51.8663 48.6159 59.4767C48.6159 67.0872 42.4487 73.2542 34.8385 73.2542ZM55.2026 59.0759C55.2026 50.01 48.6099 42.227 39.9079 38.9028C44.6134 36.9354 49.7754 35.8439 55.1964 35.8439C60.6173 35.8439 65.7853 36.9354 70.491 38.9028C61.7954 42.2332 55.2026 50.0101 55.2026 59.0759ZM75.5606 73.2542C67.9502 73.2542 61.783 67.0872 61.783 59.4767C61.783 51.8663 67.9502 45.6991 75.5606 45.6991C83.171 45.6991 89.3381 51.8663 89.3381 59.4767C89.3381 67.0872 83.1709 73.2542 75.5606 73.2542ZM75.5606 52.2486C71.5704 52.2486 68.3387 55.4803 68.3387 59.4706C68.3387 63.4607 71.5704 66.6923 75.5606 66.6923C79.5507 66.6923 82.7824 63.4607 82.7824 59.4706C82.7822 55.4865 79.5507 52.2486 75.5606 52.2486ZM42.0602 59.4767C42.0602 63.4668 38.8286 66.6985 34.8385 66.6985C30.8484 66.6985 27.6167 63.4668 27.6167 59.4767C27.6167 55.4865 30.8484 52.2548 34.8385 52.2548C38.8286 52.2486 42.0602 55.4865 42.0602 59.4767Z" fill="black"/>
</svg>
